<?xml version="1.0" encoding="utf-8"?>
<!-- Generator: Adobe Illustrator 18.1.1, SVG Export Plug-In . SVG Version: 6.00 Build 0)  -->
<svg version="1.1" id="Layer_1" xmlns="http://www.w3.org/2000/svg" xmlns:xlink="http://www.w3.org/1999/xlink" x="0px" y="0px"
	 viewBox="0 0 792 612" enable-background="new 0 0 792 612" xml:space="preserve">
<g>
	<path fill="#EB5849" d="M144.2,299.7c-0.1,0.4-0.4,0.6-0.9,0.6c-0.6,0-0.9-0.3-0.9-0.8c0-0.1,0-0.2,0.1-0.3l1.5-4.8
		c0.1-0.4,0.4-0.6,0.9-0.6c0.6,0,1,0.3,1,0.8c0,0.1,0,0.2-0.1,0.3L144.2,299.7z"/>
	<path fill="#EB5849" d="M153.5,318.3v-20.7l-4.8,3.8h-2.8l8-6.4h1.5v23.3H153.5z"/>
	<path fill="#EB5849" d="M168.8,318.7c-2.9,0-5.1-0.6-6.7-1.9c-1.8-1.4-2.8-3.6-2.8-6.7h1.8c0,2.5,0.7,4.2,2.2,5.3
		c1.3,1,3.2,1.5,5.5,1.5c2.3,0,4.1-0.6,5.5-1.7c1.4-1.1,2.1-2.7,2.1-4.9c0-2.1-0.8-3.7-2.3-4.9c-1.4-1.1-3.3-1.7-5.5-1.7
		c-3,0-5.2,1.1-6.7,3.4h-1.8l0.6-12.3h16.5v1.7h-14.7l-0.3,7.8c1.6-1.5,3.8-2.3,6.6-2.3c2.7,0,5,0.7,6.7,2.1
		c1.9,1.5,2.8,3.5,2.8,6.1c0,2.7-0.9,4.7-2.8,6.2C173.8,318,171.5,318.7,168.8,318.7z"/>
</g>
<g>
	<path fill="#EB5849" d="M474.3,247.4c-0.1,0.4-0.5,0.6-1.1,0.6c-5.4-0.3-10.8-0.6-16.2-0.8c-7.7-0.4-13.8-0.6-18.2-0.4
		c-2.4,2.8-6.2,7.7-11.3,14.8c-6.2,8.6-11.7,16.9-16.4,24.6c-9.5,15.7-16.6,28.8-21.3,39.3c-0.4,0.9-1.1,1.3-2.2,1
		c-1.2-0.3-1.5-0.9-1-1.9c5.3-11.7,12.5-25.2,21.8-40.4c4.7-7.7,10-15.6,15.8-23.7c4.8-6.6,8.3-11.2,10.5-13.5
		c-39.7,1.3-59.5,8.5-59.5,21.6c0,5.1,3,10.2,8.9,15.2c4.9,4.2,8.9,6.5,11.8,6.9c0.8,0.1,1.1,0.3,1,0.8c-0.1,0.4-0.5,0.5-1,0.5
		c-3.3-0.3-7.6-2.6-12.9-7c-6.5-5.3-9.7-10.7-9.7-16.4c0-9.6,8.7-16.4,26.2-20.6c8.8-2.1,21-3.5,36.8-4.2c1.5-0.1,3.1-0.1,4.9-0.1
		c5.8,0,12.5,0.4,20,1.1c6.5,0.6,10.6,1.1,12.2,1.5C474.3,246.4,474.5,246.8,474.3,247.4z"/>
	<path fill="#EB5849" d="M441,303.3c-2.1,3.1-5.1,6.5-9,10.1c-4.8,4.4-9.4,6.4-13.6,6.1c-3.4-0.3-5.2-2.6-5.2-7c0-3,0.8-6,2.3-9
		c1.6-3,3.7-5.7,6.5-8c2.8-2.3,5.1-3.4,7.1-3.4c1.6,0,2.3,0.7,2.3,2c0,1.3-0.8,3-2.3,5c-1.5,2-3.1,3.5-4.8,4.6
		c-2.2,1.4-4.5,2.5-6.9,3c-0.8,2.2-1.2,4.2-1.2,6.1c0,3,1.2,4.4,3.6,4.4c2.8,0,6.4-1.8,10.6-5.3c3-2.6,6.3-6.1,9.9-10.7L441,303.3z
		 M428,294.7c-1.5,0-3.8,1.9-6.8,5.6c-1,1.2-1.8,2.5-2.5,4c2.1-0.7,3.9-1.5,5.3-2.6c3.3-2.3,4.9-4.3,4.9-6.1
		C428.8,295,428.6,294.7,428,294.7z"/>
	<path fill="#EB5849" d="M472.1,303.8c-1.3,1.8-3.9,4.6-7.8,8.6c-4.4,4.4-8.1,6.7-10.9,6.7c-1.9,0-2.8-1.2-2.8-3.6
		c0-1.2,0.3-2.5,1-3.9l0.2-0.4c-5.2,5.5-9.8,8.2-13.8,8.2c-2.8,0-4.2-1.6-4.2-4.8c0-4.6,2.7-9.7,8.2-15.2c2.3-2.4,4.9-4.3,7.9-5.8
		c2.8-1.4,5.2-2.2,7.2-2.2c3,0,4.5,1.6,4.5,4.7c0,2.2-0.5,3.3-1.6,3.2c-0.8,0-1-0.3-0.8-1c0.2-0.5,0.3-1,0.3-1.5c0-2-1.1-3-3.4-3
		c-3.4,0-7.7,2.5-12.8,7.4c-1.8,1.7-3.4,3.7-4.7,6c-1.4,2.4-2.2,4.5-2.2,6.2c0,2.2,1,3.3,2.9,3.3c2,0,4.7-1.3,8.1-3.9
		c3.1-2.4,5.6-4.9,7.5-7.4c0.4-0.7,1-1.6,1.8-2.8c0.6-0.8,1.4-1.2,2.4-1c0.9,0.1,1,0.8,0.2,2.1c-3.6,5.5-5.4,9.2-5.4,11.1
		c0,0.8,0.4,1.2,1.1,1.2c1.6,0,4.7-2.3,9.5-6.8c1.8-1.6,4-4.1,6.7-7.5L472.1,303.8z"/>
	<path fill="#EB5849" d="M494.7,303.3c-2.1,3.1-5.1,6.5-9,10.1c-4.8,4.4-9.4,6.4-13.6,6.1c-3.6-0.3-5.5-2.7-5.5-7.3
		c0-2.9,0.8-5.8,2.3-8.8c1.8-3.4,3.9-6.2,6.5-8.3c2.4-1.9,4.6-2.9,6.8-2.9c0.8,0,1.6,0.1,2.3,0.4c1.7,0.8,2.4,2.2,2.3,4.3
		c-0.2,2.8-0.9,4.9-2.1,6.2c-0.3,0.3-0.8,0.3-1.8,0c-0.9-0.2-1.4-0.5-1.4-0.8c0-0.4,0.5-1.3,1.5-2.9c1-1.6,1.5-2.8,1.5-3.8
		c0-1.1-0.6-1.7-1.7-1.7c-1.4,0-3.2,1.3-5.5,3.8c-2.1,2.3-3.7,4.5-4.9,6.9c-1.6,3.2-2.4,5.9-2.4,8.1c0,3.1,1.3,4.7,3.9,4.7
		c2.8,0,6.3-1.8,10.5-5.3c3-2.6,6.3-6.1,9.9-10.7L494.7,303.3z"/>
	<path fill="#EB5849" d="M520.7,302.9c-3.3,4.4-6.8,8.2-10.3,11.3c-3.8,3.3-6.7,4.9-8.9,4.9c-0.9,0-1.8-0.4-2.4-1.1
		c-0.7-0.8-1-1.6-1-2.6c0-1.9,1.2-4.6,3.5-8.3c1.5-2.3,3-4.5,4.5-6.8c1.5-2.3,2.2-3.8,2.2-4.7c0-0.2-0.1-0.4-0.3-0.6
		c-0.9-0.5-3.7,1.6-8.4,6.3c-1.3,1.3-3.8,4.1-7.5,8.4c-1.3,2.6-2.3,4.9-3.2,6.8c-0.9,2-1.9,2.8-3,2.5c-0.2-0.1-0.4-0.3-0.4-0.8
		c0-1.1,0.7-3,2-5.6c1.6-3.8,5.9-12.2,12.7-25c9.1-15.9,15.8-23.6,20-22.9c0.8,0.1,1.2,0.7,1.2,1.6c0,1.6-0.9,4-2.7,7.2
		c-1.6,2.9-3.5,5.6-5.6,8.2c-3.9,4.8-7.6,7.6-11,8.5c-1.9,3.4-4.3,8-7.1,13.7c2.4-3.1,4.5-5.5,6.2-7c3.5-3.2,6.4-4.8,8.6-4.8
		c1.9,0,2.8,0.8,2.8,2.3c0,1.4-0.8,3.4-2.4,6c-1.9,2.8-3.8,5.6-5.7,8.5c-1.7,2.6-2.5,4.5-2.5,5.5c0,0.9,0.4,1.4,1.3,1.4
		c1.6,0,4.3-1.7,8-5.2c3.3-3,6.2-6.2,8.7-9.6L520.7,302.9z M518.4,267.6c-2,0-7,6.7-14.9,20.2c3-1.8,5.8-4.2,8.3-7.4
		c5-6,7.5-10.1,7.5-12.1C519.2,267.8,519,267.6,518.4,267.6z"/>
	<path fill="#EB5849" d="M535.8,303.6c-1.6,2.1-4.5,5.5-8.9,10c-4.4,3.8-8,5.6-10.7,5.6c-2.3,0-3.5-1.2-3.5-3.5c0-1.7,1-4.4,3.1-8.2
		c4.4-7.8,7.4-12.6,8.9-14.2c0.6-0.7,1.3-0.8,2.1-0.5c0.6,0.2,0.8,0.7,0.5,1.4c-0.9,1.3-3.3,5.2-7.1,11.7c-2.6,4.6-3.9,7.5-3.9,8.5
		c0,0.9,0.6,1.4,1.7,1.4c2,0,5.2-1.9,9.6-5.8c1.1-1,2.6-2.6,4.5-4.7c1.9-2.1,2.9-3.4,3.1-3.7L535.8,303.6z M534.3,281.7
		c0,0.9-0.3,1.8-0.8,2.7c-0.9,1.3-2,2-3.1,2c-1.1,0-1.7-0.6-1.7-1.9c0-0.9,0.3-1.8,0.9-2.7c0.9-1.4,2-2.1,3.1-2.1
		C533.7,279.7,534.3,280.3,534.3,281.7z"/>
	<path fill="#EB5849" d="M564.5,302.9c-3.3,4.4-6.7,8.1-10.3,11.3c-3.8,3.3-6.8,4.9-8.9,4.9c-0.9,0-1.7-0.4-2.3-1.1
		c-0.6-0.7-0.9-1.6-0.9-2.5c0-2,1.2-4.8,3.6-8.5c5.1-7.9,7.5-12,7.1-12.3c-0.1-0.1-0.3-0.1-0.5-0.1c-1.8,0-5,2.4-9.8,7.3
		c-4.2,4.3-9.1,9.8-14.8,16.6c-0.6,0.7-1.3,0.9-2.1,0.6c-0.4-0.2-0.7-0.5-0.8-0.9c-0.2-0.4-0.2-0.7,0.1-0.9c0.8-0.8,3.4-4.8,7.8-12
		c4.4-7.2,6.8-11.3,7.3-12.5c0.2-0.8,0.9-1,1.9-0.8c0.9,0.3,1.2,0.8,0.8,1.7c-1.6,3.8-4.2,8.3-7.7,13.4c2.2-2.4,4.9-5.2,8.1-8.4
		c4.5-4.5,8-6.7,10.4-6.7c2,0,3,0.7,3,2.2c0,1.5-0.9,3.5-2.7,6.1c-5.5,8-8.3,12.7-8.3,14.3c0,1,0.4,1.4,1.3,1.4c1.6,0,4.2-1.8,8-5.3
		c3.3-3,6.2-6.2,8.7-9.6L564.5,302.9z"/>
</g>
<g>
	<g>
		<path fill="#EB5849" d="M52.7,306.5c2.6,1,3.8,2.9,3.8,5.8v6.3h-1.9v-6.2c0-3.2-2.3-4.9-6.8-4.9h-9.8v11.1h-1.9v-24.8h12
			c5.8,0,8.7,2.2,8.7,6.5C56.9,303.3,55.5,305.4,52.7,306.5z M48.2,295.5H38.1v10.2h9.6c2.1,0,3.8-0.4,5-1.2
			c1.5-0.9,2.3-2.3,2.3-4.1C55,297.1,52.7,295.5,48.2,295.5z"/>
		<path fill="#EB5849" d="M60.4,310.3c0.2,4.6,2.7,6.9,7.3,6.9c3.5,0,5.9-1.5,7-4.4h1.9c-0.7,2.3-1.9,3.9-3.6,4.8
			c-1.5,0.8-3.3,1.2-5.3,1.2c-3,0-5.3-0.9-6.9-2.6c-1.5-1.6-2.2-3.8-2.2-6.7c0-2.8,0.8-5.1,2.5-6.8c1.7-1.7,3.9-2.6,6.7-2.6
			c2.8,0,5,0.8,6.7,2.4c1.7,1.6,2.5,3.7,2.5,6.4v1.3H60.4z M67.8,302c-2.1,0-3.8,0.6-5.1,1.8c-1.3,1.2-2.1,2.8-2.3,4.8H75
			c-0.1-2-0.8-3.7-2.1-4.8C71.6,302.6,69.9,302,67.8,302z"/>
		<path fill="#EB5849" d="M87.1,318.6h-1.7l-8.6-17.8H79l7.3,15.4l6.8-15.4h2L87.1,318.6z"/>
		<path fill="#EB5849" d="M97,297.5c-0.4,0-0.7-0.2-0.9-0.7v-2.6c0.2-0.5,0.5-0.7,0.9-0.7c0.3,0,0.6,0.2,1,0.7v2.7
			C97.7,297.3,97.3,297.5,97,297.5z M96.1,318.6v-18.1H98v18.1H96.1z"/>
		<path fill="#EB5849" d="M109.3,318.6h-1.7L99,300.7h2.2l7.3,15.4l6.8-15.4h2L109.3,318.6z"/>
		<path fill="#EB5849" d="M119,310.3c0.2,4.6,2.7,6.9,7.3,6.9c3.5,0,5.9-1.5,7-4.4h1.9c-0.7,2.3-1.9,3.9-3.6,4.8
			c-1.5,0.8-3.3,1.2-5.3,1.2c-3,0-5.3-0.9-6.9-2.6c-1.5-1.6-2.2-3.8-2.2-6.7c0-2.8,0.8-5.1,2.5-6.8c1.7-1.7,3.9-2.6,6.7-2.6
			c2.8,0,5,0.8,6.7,2.4c1.7,1.6,2.5,3.7,2.5,6.4v1.3H119z M126.5,302c-2.1,0-3.8,0.6-5.1,1.8c-1.3,1.2-2.1,2.8-2.3,4.8h14.6
			c-0.1-2-0.8-3.7-2.1-4.8C130.2,302.6,128.5,302,126.5,302z"/>
		<path fill="#EB5849" d="M183.6,305.6c-0.6,0-1-0.3-1-0.9v-2.2c0-0.6,0.3-0.9,1-0.9c0.6,0,0.9,0.3,0.9,0.9v2.3
			C184.5,305.3,184.2,305.6,183.6,305.6z M183.6,318.7c-0.6,0-1-0.3-1-0.9v-2.2c0-0.6,0.3-0.9,1-0.9c0.6,0,0.9,0.3,0.9,0.9v2.2
			C184.5,318.3,184.2,318.7,183.6,318.7z"/>
		<path fill="#320F47" d="M238.8,318.6l-2.3,0l-8.7-20l-8.5,20l-2.4,0l-16.3-37.3h2.9l14.5,33.3l8.2-19.5l-6-13.7h2.9l14.5,33.3
			l14-33.3h2.9L238.8,318.6z"/>
		<path fill="#320F47" d="M269.2,319.2c-4.4,0-7.8-1.3-10.4-3.9c-2.5-2.6-3.8-6-3.8-10.1c0-4.3,1.3-7.7,3.9-10.3
			c2.6-2.5,6.1-3.8,10.4-3.8c4.3,0,7.7,1.3,10.3,3.8c2.6,2.5,3.9,6,3.9,10.3c0,4.3-1.3,7.7-3.9,10.2
			C276.9,317.9,273.5,319.2,269.2,319.2z M277.6,296.8c-2-2.1-4.8-3.2-8.4-3.2c-3.5,0-6.3,1-8.4,3.1c-2.1,2.1-3.1,4.9-3.1,8.4
			c0,3.5,1,6.3,3.1,8.3c2.1,2.1,4.8,3.1,8.3,3.1c3.5,0,6.3-1,8.3-3.1c2.1-2.1,3.1-4.8,3.1-8.3C280.7,301.7,279.7,298.9,277.6,296.8z
			"/>
		<path fill="#320F47" d="M323.8,318.6V301c0-4.9-2.4-7.4-7.1-7.4c-2.6,0-4.7,0.7-6.3,2.2c-1.6,1.5-2.4,3.4-2.4,5.9v16.8h-2.8V301
			c0-4.9-2.4-7.4-7.3-7.4c-2.8,0-4.9,1-6.5,3c-1.4,1.8-2.1,4.1-2.1,6.8v15.1h-2.8v-26.9h2.8v3.5c2.1-2.8,5.1-4.1,9.1-4.1
			c4.1,0,7,1.6,8.6,4.7c1.8-3.2,5-4.7,9.5-4.7c6.7,0,10.1,3.2,10.1,9.5v18H323.8z"/>
		<path fill="#320F47" d="M332.4,306.2c0.4,7,4,10.4,11,10.4c5.3,0,8.8-2.2,10.5-6.5h2.9c-1.1,3.4-2.9,5.9-5.4,7.3
			c-2.2,1.2-4.9,1.9-8,1.9c-4.5,0-8-1.3-10.3-3.9c-2.2-2.4-3.4-5.8-3.4-10.1c0-4.2,1.3-7.6,3.8-10.2c2.5-2.6,5.9-3.9,10.1-3.9
			c4.2,0,7.6,1.2,10.1,3.6c2.5,2.4,3.8,5.6,3.8,9.6v1.9H332.4z M343.6,293.7c-3.1,0-5.7,0.9-7.7,2.6c-2,1.8-3.2,4.2-3.5,7.3h22
			c-0.2-3.1-1.3-5.5-3.2-7.3C349.2,294.5,346.7,293.7,343.6,293.7z"/>
		<path fill="#320F47" d="M381.5,318.6V301c0-2.4-0.8-4.2-2.3-5.6c-1.5-1.2-3.6-1.8-6.2-1.8c-3.1,0-5.5,0.9-7.3,2.7
			c-1.8,1.8-2.7,4.2-2.7,7.1v15.1h-2.8v-26.9h2.8v3.7c2.1-2.9,5.4-4.3,9.9-4.3c3.3,0,5.9,0.8,8,2.3c2.2,1.7,3.4,4.1,3.4,7.1v18
			H381.5z"/>
	</g>
	<g>
		<path fill="#320F47" d="M618.9,319.9l-2.3,0l-8.7-20l-8.5,20l-2.4,0l-16.3-37.3h2.9l14.5,33.3l8.2-19.5l-6-13.7h2.9l14.5,33.3
			l14-33.3h2.9L618.9,319.9z"/>
		<path fill="#320F47" d="M649.3,320.5c-4.4,0-7.8-1.3-10.4-3.9c-2.5-2.6-3.8-6-3.8-10.1c0-4.3,1.3-7.7,3.9-10.3
			c2.6-2.5,6.1-3.8,10.4-3.8c4.3,0,7.7,1.3,10.3,3.8c2.6,2.5,3.9,6,3.9,10.3c0,4.3-1.3,7.7-3.9,10.2
			C657,319.3,653.5,320.5,649.3,320.5z M657.7,298.2c-2-2.1-4.8-3.2-8.4-3.2c-3.5,0-6.3,1-8.4,3.1c-2.1,2.1-3.1,4.9-3.1,8.4
			c0,3.5,1,6.3,3.1,8.3c2.1,2.1,4.8,3.1,8.3,3.1c3.5,0,6.3-1,8.3-3.1c2.1-2.1,3.1-4.8,3.1-8.3C660.8,303,659.7,300.3,657.7,298.2z"
			/>
		<path fill="#320F47" d="M703.9,319.9v-17.5c0-4.9-2.4-7.4-7.1-7.4c-2.6,0-4.8,0.7-6.3,2.2c-1.6,1.5-2.4,3.4-2.4,5.9v16.8h-2.8
			v-17.5c0-4.9-2.4-7.4-7.3-7.4c-2.8,0-4.9,1-6.5,3c-1.4,1.8-2.1,4.1-2.1,6.8v15.1h-2.8V293h2.8v3.5c2.1-2.8,5.1-4.1,9.1-4.1
			c4.1,0,7,1.6,8.6,4.7c1.8-3.2,5-4.7,9.5-4.7c6.7,0,10.1,3.2,10.1,9.5v18H703.9z"/>
		<path fill="#320F47" d="M712.5,307.5c0.4,7,4,10.4,11,10.4c5.3,0,8.8-2.2,10.5-6.5h2.9c-1.1,3.4-2.9,5.9-5.4,7.3
			c-2.2,1.2-4.9,1.9-8,1.9c-4.5,0-8-1.3-10.3-3.9c-2.2-2.4-3.4-5.8-3.4-10.1c0-4.2,1.3-7.6,3.8-10.2c2.5-2.6,5.9-3.9,10.1-3.9
			c4.2,0,7.6,1.2,10.1,3.6c2.5,2.4,3.8,5.6,3.8,9.6v1.9H712.5z M723.7,295c-3.1,0-5.7,0.9-7.7,2.6c-2,1.8-3.2,4.2-3.5,7.3h22
			c-0.2-3.1-1.3-5.5-3.2-7.3C729.3,295.9,726.8,295,723.7,295z"/>
		<path fill="#320F47" d="M761.6,319.9v-17.5c0-2.4-0.8-4.2-2.3-5.6c-1.5-1.2-3.6-1.8-6.2-1.8c-3.1,0-5.5,0.9-7.3,2.7
			c-1.8,1.8-2.7,4.2-2.7,7.1v15.1h-2.8V293h2.8v3.7c2.1-2.9,5.4-4.3,9.9-4.3c3.3,0,5.9,0.8,8,2.3c2.2,1.7,3.4,4.1,3.4,7.2v18H761.6z
			"/>
	</g>
	<g>
		<path fill="none" d="M559.7,320.5c-0.1,0-0.2-0.1-0.2-0.2c-4.4,2-8.2,4.3-11.3,6.8c-0.3,0.3-0.6,0.5-1,0.8
			c-4.5,3.8-7.4,8.1-8.2,12.5c-0.1,0.7-0.1,1.3-0.1,2c0,2.8,0.9,4.9,2.7,6.4c1.5,1.1,3.3,1.7,5.5,1.7c3.1,0,6.4-1.1,9.9-3.4
			c3.5-2.2,6.4-5.2,8.6-8.8c1.1-1.9,2.2-4.4,3.2-7.5c1.8-5.6,2.8-8.5,2.8-8.7c1.1-3.1,2.2-5.5,3.3-7.2c-0.1,0-0.2,0-0.3,0.1
			c-4.2,4.3-8,6.5-11.4,6.5C562,321.5,560.8,321.1,559.7,320.5z"/>
		<path fill="none" d="M563.7,319.8c2.3,0,4.9-1.3,7.8-3.9c-3.5,1.1-6.8,2.2-9.8,3.5C562.3,319.6,562.9,319.8,563.7,319.8z"/>
		<path fill="#EB5849" d="M597.4,309.8c0,0-0.9,0.1-1.3,0.1c-2.5,0.2-7.2,0.7-9.7,1.1c-1.2,0.2-2.4,0.3-3.6,0.5
			c-0.6,0.1-1.2,0.2-1.8,0.3c-0.3,0.1-0.6,0.1-0.9,0.2c-0.1,0-0.8,0.1-0.8,0.2c1.2-2.4,2.6-4.9,4.1-7.5c0.4-0.6,0.6-1.1,0.6-1.5
			c0-0.3-0.3-0.6-0.9-0.8c-0.8-0.3-1.4-0.1-1.6,0.5c-0.9,2-2.8,4.8-5.8,8.6c-0.5,0.7-1.1,1.3-1.6,1.9c-4.9,1.3-9.5,2.8-13.7,4.7
			c-0.4-0.7-0.6-1.5-0.6-2.6c0-3.8,2-8.1,6.1-13c2-2.4,4.3-4.4,6.7-6c2.4-1.6,4.5-2.3,6.1-2.3c0.6,0,1.2,0.2,1.6,0.5
			c1.4,0.8,2.1,1.8,2.1,3.2c0,0.7-0.1,1.5-0.4,2.5c-0.2,0.5,0,0.8,0.6,0.8c0.4,0,0.8-0.3,0.9-0.9c0.3-1,0.4-1.9,0.4-2.8
			c0-2.1-0.7-3.5-2.1-4.3c-1.1-0.6-2.3-0.9-3.7-0.9c-5.4,0-10.6,3.3-15.6,9.8c-3.4,4.6-5.1,9-5.1,13.1c0,1.6,0.3,2.9,0.9,3.8
			c-5.6,2.7-10.2,5.8-13.8,9.3c-1.5,1.2-2.9,2.9-4.1,4.9c-1.1,1.6-1.8,3.3-2.3,4.9c-0.5,1.5-0.7,3-0.7,4.5c0,3.2,1,5.6,2.9,7.2
			c0.2,0.1,0.3,0.3,0.5,0.4c1.7,1.1,3.8,1.7,6.2,1.7c3.7,0,7.6-1.2,11.7-3.7c4.1-2.4,7.4-5.6,10-9.4c1.6-2.4,2.9-5.2,3.8-8.3
			c1.5-5.1,2.3-7.9,2.5-8.5c1-2.7,2.2-5.4,3.5-8.1c0-0.1,0.4-0.1,0.5-0.1c0.2,0,0.3-0.1,0.5-0.1c0.3-0.1,0.7-0.2,1-0.2
			c0.7-0.2,1.4-0.3,2.1-0.4c2.4-0.5,7-1.2,9.5-1.6c1.2-0.2,2.5-0.4,3.7-0.5c0.6-0.1,1.4-0.1,1.9-0.3c0.3-0.1,0.7-0.2,0.6-0.6
			C598,309.8,597.7,309.9,597.4,309.8z M571.5,315.8c-2.9,2.6-5.5,3.9-7.8,3.9c-0.8,0-1.5-0.1-2-0.4
			C564.7,318.1,568,316.9,571.5,315.8z M571.6,322.1c-0.1,0.2-1,3.1-2.8,8.7c-1,3.1-2.1,5.6-3.2,7.5c-2.2,3.6-5.1,6.5-8.6,8.8
			c-3.5,2.2-6.8,3.4-9.9,3.4c-2.2,0-4.1-0.6-5.5-1.7c-1.8-1.5-2.7-3.6-2.7-6.4c0-0.7,0-1.3,0.1-2c0.9-4.5,3.7-8.7,8.2-12.5
			c0.3-0.3,0.6-0.5,1-0.8c3.1-2.5,6.9-4.8,11.3-6.8c0.1,0.1,0.2,0.1,0.2,0.2c1.1,0.6,2.2,1,3.5,1c3.4,0,7.2-2.2,11.4-6.5
			c0.1,0,0.2,0,0.3-0.1C573.8,316.6,572.7,319,571.6,322.1z"/>
	</g>
</g>
</svg>
