<?xml version="1.0" encoding="utf-8"?>
<!-- Generator: Adobe Illustrator 18.1.1, SVG Export Plug-In . SVG Version: 6.00 Build 0)  -->
<svg version="1.1" id="Layer_1" xmlns="http://www.w3.org/2000/svg" xmlns:xlink="http://www.w3.org/1999/xlink" x="0px" y="0px"
	 viewBox="24.7 353 565 88" enable-background="new 24.7 353 565 88" xml:space="preserve">
<g opacity="0.25">
	<path d="M475.2,414.7h-1.8l-6.7-15.5l-6.6,15.5h-1.9l-12.6-28.8h2.2l11.2,25.7l6.3-15.1l-4.6-10.6h2.2l11.2,25.7l10.8-25.7h2.2
		L475.2,414.7z"/>
	<path d="M498.7,415.2c-3.4,0-6-1-8-3c-1.9-2-2.9-4.6-2.9-7.8c0-3.3,1-6,3-8c2-1.9,4.7-2.9,8-2.9s6,1,8,2.9s3,4.6,3,8s-1,6-3,7.9
		C504.7,414.3,502,415.2,498.7,415.2z M505.2,398c-1.5-1.6-3.7-2.5-6.5-2.5c-2.7,0-4.9,0.8-6.5,2.4s-2.4,3.8-2.4,6.5
		s0.8,4.9,2.4,6.4c1.6,1.6,3.7,2.4,6.4,2.4c2.7,0,4.9-0.8,6.4-2.4c1.6-1.6,2.4-3.7,2.4-6.4C507.6,401.7,506.8,399.6,505.2,398z"/>
	<path d="M540.9,414.7v-13.5c0-3.8-1.9-5.7-5.5-5.7c-2,0-3.7,0.5-4.9,1.7s-1.9,2.6-1.9,4.6v13h-2.2v-13.5c0-3.8-1.9-5.7-5.6-5.7
		c-2.2,0-3.8,0.8-5,2.3c-1.1,1.4-1.6,3.2-1.6,5.3v11.7H512V394h2.2v2.7c1.6-2.2,3.9-3.2,7-3.2c3.2,0,5.4,1.2,6.6,3.6
		c1.4-2.5,3.9-3.6,7.3-3.6c5.2,0,7.8,2.5,7.8,7.3v13.9L540.9,414.7L540.9,414.7z"/>
	<path d="M547.6,405.2c0.3,5.4,3.1,8,8.5,8c4.1,0,6.8-1.7,8.1-5h2.2c-0.8,2.6-2.2,4.6-4.2,5.6c-1.7,0.9-3.8,1.5-6.2,1.5
		c-3.5,0-6.2-1-8-3c-1.7-1.9-2.6-4.5-2.6-7.8c0-3.2,1-5.9,2.9-7.9s4.6-3,7.8-3s5.9,0.9,7.8,2.8s2.9,4.3,2.9,7.4v1.5L547.6,405.2
		L547.6,405.2z M556.2,395.5c-2.4,0-4.4,0.7-6,2c-1.5,1.4-2.5,3.2-2.7,5.6h17c-0.2-2.4-1-4.2-2.5-5.6
		C560.5,396.2,558.6,395.5,556.2,395.5z"/>
	<path d="M585.5,414.7v-13.5c0-1.9-0.6-3.2-1.8-4.3c-1.2-0.9-2.8-1.4-4.8-1.4c-2.4,0-4.2,0.7-5.6,2.1c-1.4,1.4-2.1,3.2-2.1,5.5v11.7
		H569V394h2.2v2.9c1.6-2.2,4.2-3.3,7.7-3.3c2.5,0,4.6,0.6,6.2,1.8c1.7,1.3,2.6,3.2,2.6,5.6v13.9L585.5,414.7L585.5,414.7z"/>
</g>
<g opacity="0.25">
	<path d="M181.5,413.7h-1.8l-6.7-15.5l-6.6,15.5h-1.9L152,384.9h2.2l11.2,25.7l6.3-15.1l-4.6-10.6h2.2l11.2,25.7l10.8-25.7h2.2
		L181.5,413.7z"/>
	<path d="M205,414.2c-3.4,0-6-1-8-3c-1.9-2-2.9-4.6-2.9-7.8c0-3.3,1-6,3-8c2-1.9,4.7-2.9,8-2.9s6,1,8,2.9s3,4.6,3,8
		c0,3.3-1,5.9-3,7.9C211,413.2,208.3,414.2,205,414.2z M211.5,396.9c-1.5-1.6-3.7-2.5-6.5-2.5c-2.7,0-4.9,0.8-6.5,2.4
		s-2.4,3.8-2.4,6.5s0.8,4.9,2.4,6.4c1.6,1.6,3.7,2.4,6.4,2.4s4.9-0.8,6.4-2.4c1.6-1.6,2.4-3.7,2.4-6.4
		C213.9,400.7,213.1,398.5,211.5,396.9z"/>
	<path d="M247.2,413.7v-13.6c0-3.8-1.9-5.7-5.5-5.7c-2,0-3.6,0.5-4.9,1.7c-1.2,1.2-1.9,2.6-1.9,4.6v13h-2.2v-13.5
		c0-3.8-1.9-5.7-5.6-5.7c-2.2,0-3.8,0.8-5,2.3c-1.1,1.4-1.6,3.2-1.6,5.3v11.7h-2.2V393h2.2v2.7c1.6-2.2,3.9-3.2,7-3.2
		c3.2,0,5.4,1.2,6.6,3.6c1.4-2.5,3.9-3.6,7.3-3.6c5.2,0,7.8,2.5,7.8,7.3v13.9L247.2,413.7L247.2,413.7z"/>
	<path d="M253.9,404.2c0.3,5.4,3.1,8,8.5,8c4.1,0,6.8-1.7,8.1-5h2.2c-0.9,2.6-2.2,4.6-4.2,5.6c-1.7,0.9-3.8,1.5-6.2,1.5
		c-3.5,0-6.2-1-8-3c-1.7-1.9-2.6-4.5-2.6-7.8c0-3.2,1-5.9,2.9-7.9s4.6-3,7.8-3c3.2,0,5.9,0.9,7.8,2.8s2.9,4.3,2.9,7.4v1.5
		L253.9,404.2L253.9,404.2z M262.5,394.5c-2.4,0-4.4,0.7-6,2c-1.5,1.4-2.5,3.2-2.7,5.6h17c-0.2-2.4-1-4.2-2.5-5.6
		S264.9,394.5,262.5,394.5z"/>
	<path d="M291.8,413.7v-13.6c0-1.9-0.6-3.2-1.8-4.3c-1.2-0.9-2.8-1.4-4.8-1.4c-2.4,0-4.2,0.7-5.6,2.1s-2.1,3.2-2.1,5.5v11.7h-2.2
		v-20.8h2.2v2.9c1.6-2.2,4.2-3.3,7.6-3.3c2.5,0,4.6,0.6,6.2,1.8c1.7,1.3,2.6,3.2,2.6,5.5v13.9L291.8,413.7L291.8,413.7L291.8,413.7z
		"/>
</g>
<g opacity="0.25">
	<g>
		<path d="M108.4,399.1c-0.1,0.3-0.3,0.5-0.7,0.5c-0.5,0-0.7-0.2-0.7-0.6c0-0.1,0-0.2,0.1-0.2l1.2-3.7c0.1-0.3,0.3-0.5,0.7-0.5
			c0.5,0,0.8,0.2,0.8,0.6c0,0.1,0,0.2-0.1,0.2L108.4,399.1z"/>
		<path d="M115.6,413.5v-16l-3.7,2.9h-2.2l6.2-4.9h1.2v18H115.6L115.6,413.5z"/>
		<path d="M127.4,413.8c-2.2,0-3.9-0.5-5.2-1.5c-1.4-1.1-2.2-2.8-2.2-5.2h1.4c0,1.9,0.5,3.2,1.7,4.1c1,0.8,2.5,1.2,4.2,1.2
			s3.2-0.5,4.2-1.3c1.1-0.9,1.6-2.1,1.6-3.8c0-1.6-0.6-2.9-1.8-3.8c-1.1-0.9-2.6-1.3-4.2-1.3c-2.3,0-4,0.9-5.2,2.6h-1.4l0.5-9.5
			h12.8v1.3h-11.4l-0.2,6c1.2-1.2,2.9-1.8,5.1-1.8c2.1,0,3.9,0.5,5.2,1.6c1.5,1.2,2.2,2.7,2.2,4.7c0,2.1-0.7,3.6-2.2,4.8
			C131.3,413.3,129.5,413.8,127.4,413.8z"/>
	</g>
	<g>
		<path d="M37.7,404.4c2,0.8,2.9,2.2,2.9,4.5v4.9h-1.5V409c0-2.5-1.8-3.8-5.3-3.8h-7.6v8.6h-1.5v-19.2H34c4.5,0,6.7,1.7,6.7,5
			C41,401.9,39.9,403.5,37.7,404.4z M34.2,395.9h-7.8v7.9h7.4c1.6,0,2.9-0.3,3.9-0.9c1.2-0.7,1.8-1.8,1.8-3.2
			C39.5,397.1,37.7,395.9,34.2,395.9z"/>
		<path d="M43.7,407.3c0.2,3.6,2.1,5.3,5.6,5.3c2.7,0,4.6-1.2,5.4-3.4h1.5c-0.5,1.8-1.5,3-2.8,3.7c-1.2,0.6-2.6,0.9-4.1,0.9
			c-2.3,0-4.1-0.7-5.3-2c-1.2-1.2-1.7-2.9-1.7-5.2c0-2.2,0.6-3.9,1.9-5.3c1.3-1.3,3-2,5.2-2s3.9,0.6,5.2,1.9
			c1.3,1.2,1.9,2.9,1.9,4.9v1L43.7,407.3L43.7,407.3z M49.4,400.9c-1.6,0-2.9,0.5-3.9,1.4s-1.6,2.2-1.8,3.7H55
			c-0.1-1.5-0.6-2.9-1.6-3.7C52.3,401.4,51,400.9,49.4,400.9z"/>
		<path d="M64.3,413.7H63L56.3,400H58l5.6,11.9l5.3-11.9h1.5L64.3,413.7z"/>
		<path d="M72,397.4c-0.3,0-0.5-0.2-0.7-0.5v-2c0.2-0.4,0.4-0.5,0.7-0.5c0.2,0,0.5,0.2,0.8,0.5v2.1C72.5,397.3,72.2,397.4,72,397.4z
			 M71.3,413.7v-14h1.5v14H71.3z"/>
		<path d="M81.5,413.7h-1.3l-6.6-13.8h1.7l5.6,11.9l5.3-11.9h1.5L81.5,413.7z"/>
		<path d="M89,407.3c0.2,3.6,2.1,5.3,5.6,5.3c2.7,0,4.6-1.2,5.4-3.4h1.5c-0.5,1.8-1.5,3-2.8,3.7c-1.2,0.6-2.6,0.9-4.1,0.9
			c-2.3,0-4.1-0.7-5.3-2c-1.2-1.2-1.7-2.9-1.7-5.2c0-2.2,0.6-3.9,1.9-5.3c1.3-1.3,3-2,5.2-2s3.9,0.6,5.2,1.9
			c1.3,1.2,1.9,2.9,1.9,4.9v1L89,407.3L89,407.3z M94.8,400.9c-1.6,0-2.9,0.5-3.9,1.4s-1.6,2.2-1.8,3.7h11.3
			c-0.1-1.5-0.6-2.9-1.6-3.7C97.6,401.4,96.3,400.9,94.8,400.9z"/>
		<path d="M138.9,403.7c-0.5,0-0.8-0.2-0.8-0.7v-1.7c0-0.5,0.2-0.7,0.8-0.7c0.5,0,0.7,0.2,0.7,0.7v1.8
			C139.6,403.5,139.3,403.7,138.9,403.7z M138.9,413.8c-0.5,0-0.8-0.2-0.8-0.7v-1.7c0-0.5,0.2-0.7,0.8-0.7c0.5,0,0.7,0.2,0.7,0.7
			v1.7C139.6,413.5,139.3,413.8,138.9,413.8z"/>
	</g>
</g>
<g opacity="0.25">
	<g>
		<path fill="none" d="M429.5,414.2c-0.1,0-0.2-0.1-0.2-0.2c-3.4,1.5-6.3,3.3-8.7,5.3c-0.2,0.2-0.5,0.4-0.8,0.6
			c-3.5,2.9-5.7,6.3-6.3,9.7c-0.1,0.5-0.1,1-0.1,1.5c0,2.2,0.7,3.8,2.1,4.9c1.2,0.9,2.6,1.3,4.2,1.3c2.4,0,4.9-0.9,7.7-2.6
			c2.7-1.7,4.9-4,6.6-6.8c0.8-1.5,1.7-3.4,2.5-5.8c1.4-4.3,2.2-6.6,2.2-6.7c0.8-2.4,1.7-4.2,2.5-5.6c-0.1,0-0.2,0-0.2,0.1
			c-3.2,3.3-6.2,5-8.8,5C431.3,415,430.3,414.7,429.5,414.2z"/>
		<path fill="none" d="M432.6,413.7c1.8,0,3.8-1,6-3c-2.7,0.9-5.3,1.7-7.6,2.7C431.5,413.5,432,413.7,432.6,413.7z"/>
	</g>
</g>
<g opacity="0.25">
	<g>
		<path d="M363.5,358.7c-0.1,0.3-0.4,0.5-0.9,0.5c-4.2-0.2-8.3-0.5-12.5-0.6c-6-0.3-10.7-0.5-14.1-0.3c-1.9,2.2-4.8,5.9-8.7,11.4
			c-4.8,6.6-9,13.1-12.7,19c-7.3,12.1-12.8,22.3-16.5,30.4c-0.3,0.7-0.9,1-1.7,0.8c-0.9-0.2-1.2-0.7-0.8-1.5
			c4.1-9,9.7-19.5,16.8-31.2c3.6-6,7.7-12.1,12.2-18.3c3.7-5.1,6.4-8.7,8.1-10.4c-30.7,1-46,6.6-46,16.7c0,3.9,2.3,7.9,6.9,11.7
			c3.8,3.2,6.9,5,9.1,5.3c0.6,0.1,0.9,0.2,0.8,0.6c-0.1,0.3-0.4,0.4-0.8,0.4c-2.5-0.2-5.9-2-10-5.4c-5-4.1-7.5-8.3-7.5-12.7
			c0-7.4,6.7-12.7,20.2-15.9c6.8-1.6,16.2-2.7,28.4-3.2c1.2-0.1,2.4-0.1,3.8-0.1c4.5,0,9.7,0.3,15.5,0.9c5,0.5,8.2,0.9,9.4,1.2
			C363.5,357.9,363.7,358.3,363.5,358.7z"/>
		<path d="M337.8,401.9c-1.6,2.4-3.9,5-7,7.8c-3.7,3.4-7.3,4.9-10.5,4.7c-2.6-0.2-4-2-4-5.4c0-2.3,0.6-4.6,1.8-7
			c1.2-2.3,2.9-4.4,5-6.2c2.2-1.8,3.9-2.6,5.5-2.6c1.2,0,1.8,0.5,1.8,1.5s-0.6,2.3-1.8,3.9s-2.4,2.7-3.7,3.6
			c-1.7,1.1-3.5,1.9-5.3,2.3c-0.6,1.7-0.9,3.2-0.9,4.7c0,2.3,0.9,3.4,2.8,3.4c2.2,0,4.9-1.4,8.2-4.1c2.3-2,4.9-4.7,7.6-8.3
			L337.8,401.9z M327.7,395.3c-1.2,0-2.9,1.5-5.3,4.3c-0.8,0.9-1.4,1.9-1.9,3.1c1.6-0.5,3-1.2,4.1-2c2.5-1.8,3.8-3.3,3.8-4.7
			C328.3,395.5,328.2,395.3,327.7,395.3z"/>
		<path d="M361.8,402.3c-1,1.4-3,3.6-6,6.6c-3.4,3.4-6.3,5.2-8.4,5.2c-1.5,0-2.2-0.9-2.2-2.8c0-0.9,0.2-1.9,0.8-3l0.2-0.3
			c-4,4.2-7.6,6.3-10.7,6.3c-2.2,0-3.2-1.2-3.2-3.7c0-3.6,2.1-7.5,6.3-11.7c1.8-1.9,3.8-3.3,6.1-4.5c2.2-1.1,4-1.7,5.6-1.7
			c2.3,0,3.5,1.2,3.5,3.6c0,1.7-0.4,2.5-1.2,2.5c-0.6,0-0.8-0.2-0.6-0.8c0.2-0.4,0.2-0.8,0.2-1.2c0-1.5-0.9-2.3-2.6-2.3
			c-2.6,0-6,1.9-9.9,5.7c-1.4,1.3-2.6,2.9-3.6,4.6c-1.1,1.9-1.7,3.5-1.7,4.8c0,1.7,0.8,2.5,2.2,2.5c1.5,0,3.6-1,6.3-3
			c2.4-1.9,4.3-3.8,5.8-5.7c0.3-0.5,0.8-1.2,1.4-2.2c0.5-0.6,1.1-0.9,1.9-0.8c0.7,0.1,0.8,0.6,0.2,1.6c-2.8,4.2-4.2,7.1-4.2,8.6
			c0,0.6,0.3,0.9,0.9,0.9c1.2,0,3.6-1.8,7.3-5.3c1.4-1.2,3.1-3.2,5.2-5.8L361.8,402.3z"/>
		<path d="M379.3,401.9c-1.6,2.4-3.9,5-7,7.8c-3.7,3.4-7.3,4.9-10.5,4.7c-2.8-0.2-4.2-2.1-4.2-5.6c0-2.2,0.6-4.5,1.8-6.8
			c1.4-2.6,3-4.8,5-6.4c1.9-1.5,3.6-2.2,5.3-2.2c0.6,0,1.2,0.1,1.8,0.3c1.3,0.6,1.9,1.7,1.8,3.3c-0.2,2.2-0.7,3.8-1.6,4.8
			c-0.2,0.2-0.6,0.2-1.4,0c-0.7-0.2-1.1-0.4-1.1-0.6c0-0.3,0.4-1,1.2-2.2c0.8-1.2,1.2-2.2,1.2-2.9c0-0.9-0.5-1.3-1.3-1.3
			c-1.1,0-2.5,1-4.2,2.9c-1.6,1.8-2.9,3.5-3.8,5.3c-1.2,2.5-1.9,4.6-1.9,6.3c0,2.4,1,3.6,3,3.6c2.2,0,4.9-1.4,8.1-4.1
			c2.3-2,4.9-4.7,7.6-8.3L379.3,401.9z"/>
		<path d="M399.4,401.6c-2.5,3.4-5.3,6.3-8,8.7c-2.9,2.5-5.2,3.8-6.9,3.8c-0.7,0-1.4-0.3-1.9-0.9s-0.8-1.2-0.8-2
			c0-1.5,0.9-3.6,2.7-6.4c1.2-1.8,2.3-3.5,3.5-5.3s1.7-2.9,1.7-3.6c0-0.2-0.1-0.3-0.2-0.5c-0.7-0.4-2.9,1.2-6.5,4.9
			c-1,1-2.9,3.2-5.8,6.5c-1,2-1.8,3.8-2.5,5.3s-1.5,2.2-2.3,1.9c-0.2-0.1-0.3-0.2-0.3-0.6c0-0.8,0.5-2.3,1.5-4.3
			c1.2-2.9,4.6-9.4,9.8-19.3c7-12.3,12.2-18.2,15.5-17.7c0.6,0.1,0.9,0.5,0.9,1.2c0,1.2-0.7,3.1-2.1,5.6c-1.2,2.2-2.7,4.3-4.3,6.3
			c-3,3.7-5.9,5.9-8.5,6.6c-1.5,2.6-3.3,6.2-5.5,10.6c1.9-2.4,3.5-4.2,4.8-5.4c2.7-2.5,4.9-3.7,6.6-3.7c1.5,0,2.2,0.6,2.2,1.8
			c0,1.1-0.6,2.6-1.9,4.6c-1.5,2.2-2.9,4.3-4.4,6.6c-1.3,2-1.9,3.5-1.9,4.2s0.3,1.1,1,1.1c1.2,0,3.3-1.3,6.2-4
			c2.5-2.3,4.8-4.8,6.7-7.4L399.4,401.6z M397.6,374.3c-1.5,0-5.4,5.2-11.5,15.6c2.3-1.4,4.5-3.2,6.4-5.7c3.9-4.6,5.8-7.8,5.8-9.4
			C398.2,374.5,398,374.3,397.6,374.3z"/>
		<path d="M411,402.1c-1.2,1.6-3.5,4.2-6.9,7.7c-3.4,2.9-6.2,4.3-8.3,4.3c-1.8,0-2.7-0.9-2.7-2.7c0-1.3,0.8-3.4,2.4-6.3
			c3.4-6,5.7-9.7,6.9-11c0.5-0.5,1-0.6,1.6-0.4c0.5,0.2,0.6,0.5,0.4,1.1c-0.7,1-2.5,4-5.5,9c-2,3.6-3,5.8-3,6.6
			c0,0.7,0.5,1.1,1.3,1.1c1.5,0,4-1.5,7.4-4.5c0.8-0.8,2-2,3.5-3.6s2.2-2.6,2.4-2.9L411,402.1z M409.9,385.2c0,0.7-0.2,1.4-0.6,2.1
			c-0.7,1-1.5,1.5-2.4,1.5s-1.3-0.5-1.3-1.5c0-0.7,0.2-1.4,0.7-2.1c0.7-1.1,1.5-1.6,2.4-1.6C409.4,383.7,409.9,384.1,409.9,385.2z"
			/>
		<path d="M433.2,401.6c-2.5,3.4-5.2,6.3-8,8.7c-2.9,2.5-5.3,3.8-6.9,3.8c-0.7,0-1.3-0.3-1.8-0.9c-0.5-0.5-0.7-1.2-0.7-1.9
			c0-1.5,0.9-3.7,2.8-6.6c3.9-6.1,5.8-9.3,5.5-9.5c-0.1-0.1-0.2-0.1-0.4-0.1c-1.4,0-3.9,1.9-7.6,5.6c-3.2,3.3-7,7.6-11.4,12.8
			c-0.5,0.5-1,0.7-1.6,0.5c-0.3-0.2-0.5-0.4-0.6-0.7c-0.2-0.3-0.2-0.5,0.1-0.7c0.6-0.6,2.6-3.7,6-9.3c3.4-5.6,5.3-8.7,5.6-9.7
			c0.2-0.6,0.7-0.8,1.5-0.6c0.7,0.2,0.9,0.6,0.6,1.3c-1.2,2.9-3.2,6.4-6,10.4c1.7-1.9,3.8-4,6.3-6.5c3.5-3.5,6.2-5.2,8-5.2
			c1.5,0,2.3,0.5,2.3,1.7s-0.7,2.7-2.1,4.7c-4.2,6.2-6.4,9.8-6.4,11c0,0.8,0.3,1.1,1,1.1c1.2,0,3.2-1.4,6.2-4.1
			c2.5-2.3,4.8-4.8,6.7-7.4L433.2,401.6z"/>
	</g>
	<path d="M458.6,406.9c0,0-0.7,0.1-1,0.1c-1.9,0.2-5.6,0.5-7.5,0.8c-0.9,0.2-1.9,0.2-2.8,0.4c-0.5,0.1-0.9,0.2-1.4,0.2
		c-0.2,0.1-0.5,0.1-0.7,0.2c-0.1,0-0.6,0.1-0.6,0.2c0.9-1.9,2-3.8,3.2-5.8c0.3-0.5,0.5-0.9,0.5-1.2c0-0.2-0.2-0.5-0.7-0.6
		c-0.6-0.2-1.1-0.1-1.2,0.4c-0.7,1.5-2.2,3.7-4.5,6.6c-0.4,0.5-0.9,1-1.2,1.5c-3.8,1-7.3,2.2-10.6,3.6c-0.3-0.5-0.5-1.2-0.5-2
		c0-2.9,1.5-6.3,4.7-10c1.5-1.9,3.3-3.4,5.2-4.6c1.9-1.2,3.5-1.8,4.7-1.8c0.5,0,0.9,0.2,1.2,0.4c1.1,0.6,1.6,1.4,1.6,2.5
		c0,0.5-0.1,1.2-0.3,1.9c-0.2,0.4,0,0.6,0.5,0.6c0.3,0,0.6-0.2,0.7-0.7c0.2-0.8,0.3-1.5,0.3-2.2c0-1.6-0.5-2.7-1.6-3.3
		c-0.8-0.5-1.8-0.7-2.9-0.7c-4.2,0-8.2,2.5-12.1,7.6c-2.6,3.6-3.9,7-3.9,10.1c0,1.2,0.2,2.2,0.7,2.9c-4.3,2.1-7.9,4.5-10.7,7.2
		c-1.2,0.9-2.2,2.2-3.2,3.8c-0.8,1.2-1.4,2.5-1.8,3.8c-0.4,1.2-0.5,2.3-0.5,3.5c0,2.5,0.8,4.3,2.2,5.6c0.2,0.1,0.2,0.2,0.4,0.3
		c1.3,0.9,2.9,1.3,4.8,1.3c2.9,0,5.9-0.9,9-2.9c3.2-1.9,5.7-4.3,7.7-7.3c1.2-1.9,2.2-4,2.9-6.4c1.2-3.9,1.8-6.1,1.9-6.6
		c0.8-2.1,1.7-4.2,2.7-6.3c0-0.1,0.3-0.1,0.4-0.1c0.2,0,0.2-0.1,0.4-0.1c0.2-0.1,0.5-0.2,0.8-0.2c0.5-0.2,1.1-0.2,1.6-0.3
		c1.9-0.4,5.4-0.9,7.3-1.2c0.9-0.2,1.9-0.3,2.9-0.4c0.5-0.1,1.1-0.1,1.5-0.2c0.2-0.1,0.5-0.2,0.5-0.5
		C459.1,406.9,458.9,407,458.6,406.9z M438.6,411.6c-2.2,2-4.2,3-6,3c-0.6,0-1.2-0.1-1.5-0.3C433.4,413.4,435.9,412.4,438.6,411.6z
		 M438.7,416.4c-0.1,0.2-0.8,2.4-2.2,6.7c-0.8,2.4-1.6,4.3-2.5,5.8c-1.7,2.8-3.9,5-6.6,6.8c-2.7,1.7-5.3,2.6-7.7,2.6
		c-1.7,0-3.2-0.5-4.2-1.3c-1.4-1.2-2.1-2.8-2.1-4.9c0-0.5,0-1,0.1-1.5c0.7-3.5,2.9-6.7,6.3-9.7c0.2-0.2,0.5-0.4,0.8-0.6
		c2.4-1.9,5.3-3.7,8.7-5.3c0.1,0.1,0.2,0.1,0.2,0.2c0.9,0.5,1.7,0.8,2.7,0.8c2.6,0,5.6-1.7,8.8-5c0.1,0,0.2,0,0.2-0.1
		C440.4,412.2,439.5,414,438.7,416.4z"/>
</g>
<g>
	<path fill="#FFFFFF" d="M475.2,413.7h-1.8l-6.7-15.5l-6.6,15.5h-1.9l-12.6-28.8h2.2l11.2,25.7l6.3-15.1l-4.6-10.6h2.2l11.2,25.7
		l10.8-25.7h2.2L475.2,413.7z"/>
	<path fill="#FFFFFF" d="M498.7,414.2c-3.4,0-6-1-8-3c-1.9-2-2.9-4.6-2.9-7.8c0-3.3,1-6,3-8c2-1.9,4.7-2.9,8-2.9s6,1,8,2.9
		s3,4.6,3,8s-1,6-3,7.9C504.7,413.3,502,414.2,498.7,414.2z M505.2,397c-1.5-1.6-3.7-2.5-6.5-2.5c-2.7,0-4.9,0.8-6.5,2.4
		s-2.4,3.8-2.4,6.5s0.8,4.9,2.4,6.4c1.6,1.6,3.7,2.4,6.4,2.4c2.7,0,4.9-0.8,6.4-2.4c1.6-1.6,2.4-3.7,2.4-6.4
		C507.6,400.7,506.8,398.6,505.2,397z"/>
	<path fill="#FFFFFF" d="M540.9,413.7v-13.5c0-3.8-1.9-5.7-5.5-5.7c-2,0-3.7,0.5-4.9,1.7s-1.9,2.6-1.9,4.6v13h-2.2v-13.5
		c0-3.8-1.9-5.7-5.6-5.7c-2.2,0-3.8,0.8-5,2.3c-1.1,1.4-1.6,3.2-1.6,5.3v11.7H512V393h2.2v2.7c1.6-2.2,3.9-3.2,7-3.2
		c3.2,0,5.4,1.2,6.6,3.6c1.4-2.5,3.9-3.6,7.3-3.6c5.2,0,7.8,2.5,7.8,7.3v13.9L540.9,413.7L540.9,413.7z"/>
	<path fill="#FFFFFF" d="M547.6,404.2c0.3,5.4,3.1,8,8.5,8c4.1,0,6.8-1.7,8.1-5h2.2c-0.8,2.6-2.2,4.6-4.2,5.6
		c-1.7,0.9-3.8,1.5-6.2,1.5c-3.5,0-6.2-1-8-3c-1.7-1.9-2.6-4.5-2.6-7.8c0-3.2,1-5.9,2.9-7.9s4.6-3,7.8-3s5.9,0.9,7.8,2.8
		s2.9,4.3,2.9,7.4v1.5L547.6,404.2L547.6,404.2z M556.2,394.5c-2.4,0-4.4,0.7-6,2c-1.5,1.4-2.5,3.2-2.7,5.6h17
		c-0.2-2.4-1-4.2-2.5-5.6C560.5,395.2,558.6,394.5,556.2,394.5z"/>
	<path fill="#FFFFFF" d="M585.5,413.7v-13.5c0-1.9-0.6-3.2-1.8-4.3c-1.2-0.9-2.8-1.4-4.8-1.4c-2.4,0-4.2,0.7-5.6,2.1
		c-1.4,1.4-2.1,3.2-2.1,5.5v11.7H569V393h2.2v2.9c1.6-2.2,4.2-3.3,7.7-3.3c2.5,0,4.6,0.6,6.2,1.8c1.7,1.3,2.6,3.2,2.6,5.6v13.9
		L585.5,413.7L585.5,413.7z"/>
</g>
<g>
	<path fill="#FFFFFF" d="M181.5,412.7h-1.8l-6.7-15.5l-6.6,15.5h-1.9L152,383.9h2.2l11.2,25.7l6.3-15.1l-4.6-10.6h2.2l11.2,25.7
		l10.8-25.7h2.2L181.5,412.7z"/>
	<path fill="#FFFFFF" d="M205,413.2c-3.4,0-6-1-8-3c-1.9-2-2.9-4.6-2.9-7.8c0-3.3,1-6,3-8c2-1.9,4.7-2.9,8-2.9s6,1,8,2.9s3,4.6,3,8
		c0,3.3-1,5.9-3,7.9C211,412.2,208.3,413.2,205,413.2z M211.5,395.9c-1.5-1.6-3.7-2.5-6.5-2.5c-2.7,0-4.9,0.8-6.5,2.4
		s-2.4,3.8-2.4,6.5s0.8,4.9,2.4,6.4c1.6,1.6,3.7,2.4,6.4,2.4s4.9-0.8,6.4-2.4c1.6-1.6,2.4-3.7,2.4-6.4
		C213.9,399.7,213.1,397.5,211.5,395.9z"/>
	<path fill="#FFFFFF" d="M247.2,412.7v-13.6c0-3.8-1.9-5.7-5.5-5.7c-2,0-3.6,0.5-4.9,1.7c-1.2,1.2-1.9,2.6-1.9,4.6v13h-2.2v-13.5
		c0-3.8-1.9-5.7-5.6-5.7c-2.2,0-3.8,0.8-5,2.3c-1.1,1.4-1.6,3.2-1.6,5.3v11.7h-2.2V392h2.2v2.7c1.6-2.2,3.9-3.2,7-3.2
		c3.2,0,5.4,1.2,6.6,3.6c1.4-2.5,3.9-3.6,7.3-3.6c5.2,0,7.8,2.5,7.8,7.3v13.9L247.2,412.7L247.2,412.7z"/>
	<path fill="#FFFFFF" d="M253.9,403.2c0.3,5.4,3.1,8,8.5,8c4.1,0,6.8-1.7,8.1-5h2.2c-0.9,2.6-2.2,4.6-4.2,5.6
		c-1.7,0.9-3.8,1.5-6.2,1.5c-3.5,0-6.2-1-8-3c-1.7-1.9-2.6-4.5-2.6-7.8c0-3.2,1-5.9,2.9-7.9s4.6-3,7.8-3c3.2,0,5.9,0.9,7.8,2.8
		s2.9,4.3,2.9,7.4v1.5L253.9,403.2L253.9,403.2z M262.5,393.5c-2.4,0-4.4,0.7-6,2c-1.5,1.4-2.5,3.2-2.7,5.6h17
		c-0.2-2.4-1-4.2-2.5-5.6S264.9,393.5,262.5,393.5z"/>
	<path fill="#FFFFFF" d="M291.8,412.7v-13.6c0-1.9-0.6-3.2-1.8-4.3c-1.2-0.9-2.8-1.4-4.8-1.4c-2.4,0-4.2,0.7-5.6,2.1
		s-2.1,3.2-2.1,5.5v11.7h-2.2v-20.8h2.2v2.9c1.6-2.2,4.2-3.3,7.6-3.3c2.5,0,4.6,0.6,6.2,1.8c1.7,1.3,2.6,3.2,2.6,5.5v13.9
		L291.8,412.7L291.8,412.7L291.8,412.7z"/>
</g>
<g>
	<g>
		<path fill="#EB5949" d="M363.5,357.7c-0.1,0.3-0.4,0.5-0.9,0.5c-4.2-0.2-8.3-0.5-12.5-0.6c-6-0.3-10.7-0.5-14.1-0.3
			c-1.9,2.2-4.8,5.9-8.7,11.4c-4.8,6.6-9,13.1-12.7,19c-7.3,12.1-12.8,22.3-16.5,30.4c-0.3,0.7-0.9,1-1.7,0.8
			c-0.9-0.2-1.2-0.7-0.8-1.5c4.1-9,9.7-19.5,16.8-31.2c3.6-6,7.7-12.1,12.2-18.3c3.7-5.1,6.4-8.7,8.1-10.4c-30.7,1-46,6.6-46,16.7
			c0,3.9,2.3,7.9,6.9,11.7c3.8,3.2,6.9,5,9.1,5.3c0.6,0.1,0.9,0.2,0.8,0.6c-0.1,0.3-0.4,0.4-0.8,0.4c-2.5-0.2-5.9-2-10-5.4
			c-5-4.1-7.5-8.3-7.5-12.7c0-7.4,6.7-12.7,20.2-15.9c6.8-1.6,16.2-2.7,28.4-3.2c1.2-0.1,2.4-0.1,3.8-0.1c4.5,0,9.7,0.3,15.5,0.9
			c5,0.5,8.2,0.9,9.4,1.2C363.5,356.9,363.7,357.3,363.5,357.7z"/>
		<path fill="#EB5949" d="M337.8,400.9c-1.6,2.4-3.9,5-7,7.8c-3.7,3.4-7.3,4.9-10.5,4.7c-2.6-0.2-4-2-4-5.4c0-2.3,0.6-4.6,1.8-7
			c1.2-2.3,2.9-4.4,5-6.2c2.2-1.8,3.9-2.6,5.5-2.6c1.2,0,1.8,0.5,1.8,1.5s-0.6,2.3-1.8,3.9s-2.4,2.7-3.7,3.6
			c-1.7,1.1-3.5,1.9-5.3,2.3c-0.6,1.7-0.9,3.2-0.9,4.7c0,2.3,0.9,3.4,2.8,3.4c2.2,0,4.9-1.4,8.2-4.1c2.3-2,4.9-4.7,7.6-8.3
			L337.8,400.9z M327.7,394.3c-1.2,0-2.9,1.5-5.3,4.3c-0.8,0.9-1.4,1.9-1.9,3.1c1.6-0.5,3-1.2,4.1-2c2.5-1.8,3.8-3.3,3.8-4.7
			C328.3,394.5,328.2,394.3,327.7,394.3z"/>
		<path fill="#EB5949" d="M361.8,401.3c-1,1.4-3,3.6-6,6.6c-3.4,3.4-6.3,5.2-8.4,5.2c-1.5,0-2.2-0.9-2.2-2.8c0-0.9,0.2-1.9,0.8-3
			l0.2-0.3c-4,4.2-7.6,6.3-10.7,6.3c-2.2,0-3.2-1.2-3.2-3.7c0-3.6,2.1-7.5,6.3-11.7c1.8-1.9,3.8-3.3,6.1-4.5c2.2-1.1,4-1.7,5.6-1.7
			c2.3,0,3.5,1.2,3.5,3.6c0,1.7-0.4,2.5-1.2,2.5c-0.6,0-0.8-0.2-0.6-0.8c0.2-0.4,0.2-0.8,0.2-1.2c0-1.5-0.9-2.3-2.6-2.3
			c-2.6,0-6,1.9-9.9,5.7c-1.4,1.3-2.6,2.9-3.6,4.6c-1.1,1.9-1.7,3.5-1.7,4.8c0,1.7,0.8,2.5,2.2,2.5c1.5,0,3.6-1,6.3-3
			c2.4-1.9,4.3-3.8,5.8-5.7c0.3-0.5,0.8-1.2,1.4-2.2c0.5-0.6,1.1-0.9,1.9-0.8c0.7,0.1,0.8,0.6,0.2,1.6c-2.8,4.2-4.2,7.1-4.2,8.6
			c0,0.6,0.3,0.9,0.9,0.9c1.2,0,3.6-1.8,7.3-5.3c1.4-1.2,3.1-3.2,5.2-5.8L361.8,401.3z"/>
		<path fill="#EB5949" d="M379.3,400.9c-1.6,2.4-3.9,5-7,7.8c-3.7,3.4-7.3,4.9-10.5,4.7c-2.8-0.2-4.2-2.1-4.2-5.6
			c0-2.2,0.6-4.5,1.8-6.8c1.4-2.6,3-4.8,5-6.4c1.9-1.5,3.6-2.2,5.3-2.2c0.6,0,1.2,0.1,1.8,0.3c1.3,0.6,1.9,1.7,1.8,3.3
			c-0.2,2.2-0.7,3.8-1.6,4.8c-0.2,0.2-0.6,0.2-1.4,0c-0.7-0.2-1.1-0.4-1.1-0.6c0-0.3,0.4-1,1.2-2.2c0.8-1.2,1.2-2.2,1.2-2.9
			c0-0.9-0.5-1.3-1.3-1.3c-1.1,0-2.5,1-4.2,2.9c-1.6,1.8-2.9,3.5-3.8,5.3c-1.2,2.5-1.9,4.6-1.9,6.3c0,2.4,1,3.6,3,3.6
			c2.2,0,4.9-1.4,8.1-4.1c2.3-2,4.9-4.7,7.6-8.3L379.3,400.9z"/>
		<path fill="#EB5949" d="M399.4,400.6c-2.5,3.4-5.3,6.3-8,8.7c-2.9,2.5-5.2,3.8-6.9,3.8c-0.7,0-1.4-0.3-1.9-0.9s-0.8-1.2-0.8-2
			c0-1.5,0.9-3.6,2.7-6.4c1.2-1.8,2.3-3.5,3.5-5.3s1.7-2.9,1.7-3.6c0-0.2-0.1-0.3-0.2-0.5c-0.7-0.4-2.9,1.2-6.5,4.9
			c-1,1-2.9,3.2-5.8,6.5c-1,2-1.8,3.8-2.5,5.3s-1.5,2.2-2.3,1.9c-0.2-0.1-0.3-0.2-0.3-0.6c0-0.8,0.5-2.3,1.5-4.3
			c1.2-2.9,4.6-9.4,9.8-19.3c7-12.3,12.2-18.2,15.5-17.7c0.6,0.1,0.9,0.5,0.9,1.2c0,1.2-0.7,3.1-2.1,5.6c-1.2,2.2-2.7,4.3-4.3,6.3
			c-3,3.7-5.9,5.9-8.5,6.6c-1.5,2.6-3.3,6.2-5.5,10.6c1.9-2.4,3.5-4.2,4.8-5.4c2.7-2.5,4.9-3.7,6.6-3.7c1.5,0,2.2,0.6,2.2,1.8
			c0,1.1-0.6,2.6-1.9,4.6c-1.5,2.2-2.9,4.3-4.4,6.6c-1.3,2-1.9,3.5-1.9,4.2s0.3,1.1,1,1.1c1.2,0,3.3-1.3,6.2-4
			c2.5-2.3,4.8-4.8,6.7-7.4L399.4,400.6z M397.6,373.3c-1.5,0-5.4,5.2-11.5,15.6c2.3-1.4,4.5-3.2,6.4-5.7c3.9-4.6,5.8-7.8,5.8-9.4
			C398.2,373.5,398,373.3,397.6,373.3z"/>
		<path fill="#EB5949" d="M411,401.1c-1.2,1.6-3.5,4.2-6.9,7.7c-3.4,2.9-6.2,4.3-8.3,4.3c-1.8,0-2.7-0.9-2.7-2.7
			c0-1.3,0.8-3.4,2.4-6.3c3.4-6,5.7-9.7,6.9-11c0.5-0.5,1-0.6,1.6-0.4c0.5,0.2,0.6,0.5,0.4,1.1c-0.7,1-2.5,4-5.5,9
			c-2,3.6-3,5.8-3,6.6c0,0.7,0.5,1.1,1.3,1.1c1.5,0,4-1.5,7.4-4.5c0.8-0.8,2-2,3.5-3.6s2.2-2.6,2.4-2.9L411,401.1z M409.9,384.2
			c0,0.7-0.2,1.4-0.6,2.1c-0.7,1-1.5,1.5-2.4,1.5s-1.3-0.5-1.3-1.5c0-0.7,0.2-1.4,0.7-2.1c0.7-1.1,1.5-1.6,2.4-1.6
			C409.4,382.7,409.9,383.1,409.9,384.2z"/>
		<path fill="#EB5949" d="M433.2,400.6c-2.5,3.4-5.2,6.3-8,8.7c-2.9,2.5-5.3,3.8-6.9,3.8c-0.7,0-1.3-0.3-1.8-0.9
			c-0.5-0.5-0.7-1.2-0.7-1.9c0-1.5,0.9-3.7,2.8-6.6c3.9-6.1,5.8-9.3,5.5-9.5c-0.1-0.1-0.2-0.1-0.4-0.1c-1.4,0-3.9,1.9-7.6,5.6
			c-3.2,3.3-7,7.6-11.4,12.8c-0.5,0.5-1,0.7-1.6,0.5c-0.3-0.2-0.5-0.4-0.6-0.7c-0.2-0.3-0.2-0.5,0.1-0.7c0.6-0.6,2.6-3.7,6-9.3
			c3.4-5.6,5.3-8.7,5.6-9.7c0.2-0.6,0.7-0.8,1.5-0.6c0.7,0.2,0.9,0.6,0.6,1.3c-1.2,2.9-3.2,6.4-6,10.4c1.7-1.9,3.8-4,6.3-6.5
			c3.5-3.5,6.2-5.2,8-5.2c1.5,0,2.3,0.5,2.3,1.7s-0.7,2.7-2.1,4.7c-4.2,6.2-6.4,9.8-6.4,11c0,0.8,0.3,1.1,1,1.1
			c1.2,0,3.2-1.4,6.2-4.1c2.5-2.3,4.8-4.8,6.7-7.4L433.2,400.6z"/>
	</g>
	<path fill="#EB5949" d="M458.6,405.9c0,0-0.7,0.1-1,0.1c-1.9,0.2-5.6,0.5-7.5,0.8c-0.9,0.2-1.9,0.2-2.8,0.4
		c-0.5,0.1-0.9,0.2-1.4,0.2c-0.2,0.1-0.5,0.1-0.7,0.2c-0.1,0-0.6,0.1-0.6,0.2c0.9-1.9,2-3.8,3.2-5.8c0.3-0.5,0.5-0.9,0.5-1.2
		c0-0.2-0.2-0.5-0.7-0.6c-0.6-0.2-1.1-0.1-1.2,0.4c-0.7,1.5-2.2,3.7-4.5,6.6c-0.4,0.5-0.9,1-1.2,1.5c-3.8,1-7.3,2.2-10.6,3.6
		c-0.3-0.5-0.5-1.2-0.5-2c0-2.9,1.5-6.3,4.7-10c1.5-1.9,3.3-3.4,5.2-4.6c1.9-1.2,3.5-1.8,4.7-1.8c0.5,0,0.9,0.2,1.2,0.4
		c1.1,0.6,1.6,1.4,1.6,2.5c0,0.5-0.1,1.2-0.3,1.9c-0.2,0.4,0,0.6,0.5,0.6c0.3,0,0.6-0.2,0.7-0.7c0.2-0.8,0.3-1.5,0.3-2.2
		c0-1.6-0.5-2.7-1.6-3.3c-0.8-0.5-1.8-0.7-2.9-0.7c-4.2,0-8.2,2.5-12.1,7.6c-2.6,3.6-3.9,7-3.9,10.1c0,1.2,0.2,2.2,0.7,2.9
		c-4.3,2.1-7.9,4.5-10.7,7.2c-1.2,0.9-2.2,2.2-3.2,3.8c-0.8,1.2-1.4,2.5-1.8,3.8c-0.4,1.2-0.5,2.3-0.5,3.5c0,2.5,0.8,4.3,2.2,5.6
		c0.2,0.1,0.2,0.2,0.4,0.3c1.3,0.9,2.9,1.3,4.8,1.3c2.9,0,5.9-0.9,9-2.9c3.2-1.9,5.7-4.3,7.7-7.3c1.2-1.9,2.2-4,2.9-6.4
		c1.2-3.9,1.8-6.1,1.9-6.6c0.8-2.1,1.7-4.2,2.7-6.3c0-0.1,0.3-0.1,0.4-0.1c0.2,0,0.2-0.1,0.4-0.1c0.2-0.1,0.5-0.2,0.8-0.2
		c0.5-0.2,1.1-0.2,1.6-0.3c1.9-0.4,5.4-0.9,7.3-1.2c0.9-0.2,1.9-0.3,2.9-0.4c0.5-0.1,1.1-0.1,1.5-0.2c0.2-0.1,0.5-0.2,0.5-0.5
		C459.1,405.9,458.9,406,458.6,405.9z M438.6,410.6c-2.2,2-4.2,3-6,3c-0.6,0-1.2-0.1-1.5-0.3C433.4,412.4,435.9,411.4,438.6,410.6z
		 M438.7,415.4c-0.1,0.2-0.8,2.4-2.2,6.7c-0.8,2.4-1.6,4.3-2.5,5.8c-1.7,2.8-3.9,5-6.6,6.8c-2.7,1.7-5.3,2.6-7.7,2.6
		c-1.7,0-3.2-0.5-4.2-1.3c-1.4-1.2-2.1-2.8-2.1-4.9c0-0.5,0-1,0.1-1.5c0.7-3.5,2.9-6.7,6.3-9.7c0.2-0.2,0.5-0.4,0.8-0.6
		c2.4-1.9,5.3-3.7,8.7-5.3c0.1,0.1,0.2,0.1,0.2,0.2c0.9,0.5,1.7,0.8,2.7,0.8c2.6,0,5.6-1.7,8.8-5c0.1,0,0.2,0,0.2-0.1
		C440.4,411.2,439.5,413,438.7,415.4z"/>
</g>
<g>
	<g>
		<path fill="#EB5949" d="M108.4,398.1c-0.1,0.3-0.3,0.5-0.7,0.5c-0.5,0-0.7-0.2-0.7-0.6c0-0.1,0-0.2,0.1-0.2l1.2-3.7
			c0.1-0.3,0.3-0.5,0.7-0.5c0.5,0,0.8,0.2,0.8,0.6c0,0.1,0,0.2-0.1,0.2L108.4,398.1z"/>
		<path fill="#EB5949" d="M115.6,412.5v-16l-3.7,2.9h-2.2l6.2-4.9h1.2v18H115.6L115.6,412.5z"/>
		<path fill="#EB5949" d="M127.4,412.8c-2.2,0-3.9-0.5-5.2-1.5c-1.4-1.1-2.2-2.8-2.2-5.2h1.4c0,1.9,0.5,3.2,1.7,4.1
			c1,0.8,2.5,1.2,4.2,1.2s3.2-0.5,4.2-1.3c1.1-0.9,1.6-2.1,1.6-3.8c0-1.6-0.6-2.9-1.8-3.8c-1.1-0.9-2.6-1.3-4.2-1.3
			c-2.3,0-4,0.9-5.2,2.6h-1.4l0.5-9.5h12.8v1.3h-11.4l-0.2,6c1.2-1.2,2.9-1.8,5.1-1.8c2.1,0,3.9,0.5,5.2,1.6
			c1.5,1.2,2.2,2.7,2.2,4.7c0,2.1-0.7,3.6-2.2,4.8C131.3,412.3,129.5,412.8,127.4,412.8z"/>
	</g>
	<g>
		<path fill="#EB5949" d="M37.7,403.4c2,0.8,2.9,2.2,2.9,4.5v4.9h-1.5V408c0-2.5-1.8-3.8-5.3-3.8h-7.6v8.6h-1.5v-19.2H34
			c4.5,0,6.7,1.7,6.7,5C41,400.9,39.9,402.5,37.7,403.4z M34.2,394.9h-7.8v7.9h7.4c1.6,0,2.9-0.3,3.9-0.9c1.2-0.7,1.8-1.8,1.8-3.2
			C39.5,396.1,37.7,394.9,34.2,394.9z"/>
		<path fill="#EB5949" d="M43.7,406.3c0.2,3.6,2.1,5.3,5.6,5.3c2.7,0,4.6-1.2,5.4-3.4h1.5c-0.5,1.8-1.5,3-2.8,3.7
			c-1.2,0.6-2.6,0.9-4.1,0.9c-2.3,0-4.1-0.7-5.3-2c-1.2-1.2-1.7-2.9-1.7-5.2c0-2.2,0.6-3.9,1.9-5.3c1.3-1.3,3-2,5.2-2
			s3.9,0.6,5.2,1.9c1.3,1.2,1.9,2.9,1.9,4.9v1L43.7,406.3L43.7,406.3z M49.4,399.9c-1.6,0-2.9,0.5-3.9,1.4s-1.6,2.2-1.8,3.7H55
			c-0.1-1.5-0.6-2.9-1.6-3.7C52.3,400.4,51,399.9,49.4,399.9z"/>
		<path fill="#EB5949" d="M64.3,412.7H63L56.3,399H58l5.6,11.9l5.3-11.9h1.5L64.3,412.7z"/>
		<path fill="#EB5949" d="M72,396.4c-0.3,0-0.5-0.2-0.7-0.5v-2c0.2-0.4,0.4-0.5,0.7-0.5c0.2,0,0.5,0.2,0.8,0.5v2.1
			C72.5,396.3,72.2,396.4,72,396.4z M71.3,412.7v-14h1.5v14H71.3z"/>
		<path fill="#EB5949" d="M81.5,412.7h-1.3l-6.6-13.8h1.7l5.6,11.9l5.3-11.9h1.5L81.5,412.7z"/>
		<path fill="#EB5949" d="M89,406.3c0.2,3.6,2.1,5.3,5.6,5.3c2.7,0,4.6-1.2,5.4-3.4h1.5c-0.5,1.8-1.5,3-2.8,3.7
			c-1.2,0.6-2.6,0.9-4.1,0.9c-2.3,0-4.1-0.7-5.3-2c-1.2-1.2-1.7-2.9-1.7-5.2c0-2.2,0.6-3.9,1.9-5.3c1.3-1.3,3-2,5.2-2
			s3.9,0.6,5.2,1.9c1.3,1.2,1.9,2.9,1.9,4.9v1L89,406.3L89,406.3z M94.8,399.9c-1.6,0-2.9,0.5-3.9,1.4s-1.6,2.2-1.8,3.7h11.3
			c-0.1-1.5-0.6-2.9-1.6-3.7C97.6,400.4,96.3,399.9,94.8,399.9z"/>
		<path fill="#EB5949" d="M138.9,402.7c-0.5,0-0.8-0.2-0.8-0.7v-1.7c0-0.5,0.2-0.7,0.8-0.7c0.5,0,0.7,0.2,0.7,0.7v1.8
			C139.6,402.5,139.3,402.7,138.9,402.7z M138.9,412.8c-0.5,0-0.8-0.2-0.8-0.7v-1.7c0-0.5,0.2-0.7,0.8-0.7c0.5,0,0.7,0.2,0.7,0.7
			v1.7C139.6,412.5,139.3,412.8,138.9,412.8z"/>
	</g>
</g>
</svg>
