<?xml version="1.0" encoding="utf-8"?>
<!-- Generator: Adobe Illustrator 18.1.1, SVG Export Plug-In . SVG Version: 6.00 Build 0)  -->
<svg version="1.1" id="Layer_1" xmlns="http://www.w3.org/2000/svg" xmlns:xlink="http://www.w3.org/1999/xlink" x="0px" y="0px"
	 viewBox="0 0 612 792" enable-background="new 0 0 612 792" xml:space="preserve">
<g>
	<path fill="#320F47" d="M478.2,406.7h-1.8l-6.7-15.5l-6.6,15.5h-1.9l-12.6-28.8h2.2l11.2,25.7l6.3-15.1l-4.6-10.6h2.2l11.2,25.7
		l10.8-25.7h2.2L478.2,406.7z"/>
	<path fill="#320F47" d="M501.7,407.2c-3.4,0-6-1-8-3c-1.9-2-2.9-4.6-2.9-7.8c0-3.3,1-6,3-8c2-1.9,4.7-2.9,8-2.9c3.3,0,6,1,8,2.9
		c2,1.9,3,4.6,3,8s-1,6-3,7.9C507.7,406.3,505,407.2,501.7,407.2z M508.2,390c-1.5-1.6-3.7-2.5-6.5-2.5c-2.7,0-4.9,0.8-6.5,2.4
		c-1.6,1.6-2.4,3.8-2.4,6.5c0,2.7,0.8,4.9,2.4,6.4c1.6,1.6,3.7,2.4,6.4,2.4c2.7,0,4.9-0.8,6.4-2.4c1.6-1.6,2.4-3.7,2.4-6.4
		C510.6,393.7,509.8,391.6,508.2,390z"/>
	<path fill="#320F47" d="M543.9,406.7v-13.5c0-3.8-1.9-5.7-5.5-5.7c-2,0-3.7,0.5-4.9,1.7c-1.2,1.2-1.9,2.6-1.9,4.6v13h-2.2v-13.5
		c0-3.8-1.9-5.7-5.6-5.7c-2.2,0-3.8,0.8-5,2.3c-1.1,1.4-1.6,3.2-1.6,5.3v11.7h-2.2V386h2.2v2.7c1.6-2.2,3.9-3.2,7-3.2
		c3.2,0,5.4,1.2,6.6,3.6c1.4-2.5,3.9-3.6,7.3-3.6c5.2,0,7.8,2.5,7.8,7.3v13.9H543.9z"/>
	<path fill="#320F47" d="M550.6,397.2c0.3,5.4,3.1,8,8.5,8c4.1,0,6.8-1.7,8.1-5h2.2c-0.8,2.6-2.2,4.6-4.2,5.6
		c-1.7,0.9-3.8,1.5-6.2,1.5c-3.5,0-6.2-1-8-3c-1.7-1.9-2.6-4.5-2.6-7.8c0-3.2,1-5.9,2.9-7.9s4.6-3,7.8-3c3.2,0,5.9,0.9,7.8,2.8
		s2.9,4.3,2.9,7.4v1.5L550.6,397.2L550.6,397.2z M559.2,387.5c-2.4,0-4.4,0.7-6,2c-1.5,1.4-2.5,3.2-2.7,5.6h17
		c-0.2-2.4-1-4.2-2.5-5.6C563.5,388.2,561.6,387.5,559.2,387.5z"/>
	<path fill="#320F47" d="M588.5,406.7v-13.5c0-1.9-0.6-3.2-1.8-4.3c-1.2-0.9-2.8-1.4-4.8-1.4c-2.4,0-4.2,0.7-5.6,2.1
		c-1.4,1.4-2.1,3.2-2.1,5.5v11.7H572V386h2.2v2.9c1.6-2.2,4.2-3.3,7.7-3.3c2.5,0,4.6,0.6,6.2,1.8c1.7,1.3,2.6,3.2,2.6,5.6v13.9
		L588.5,406.7L588.5,406.7z"/>
</g>
<g>
	<g>
		<path fill="none" d="M432.5,407.2c-0.1,0-0.2-0.1-0.2-0.2c-3.4,1.5-6.3,3.3-8.7,5.3c-0.2,0.2-0.5,0.4-0.8,0.6
			c-3.5,2.9-5.7,6.3-6.3,9.7c-0.1,0.5-0.1,1-0.1,1.5c0,2.2,0.7,3.8,2.1,4.9c1.2,0.9,2.6,1.3,4.2,1.3c2.4,0,4.9-0.9,7.7-2.6
			c2.7-1.7,4.9-4,6.6-6.8c0.8-1.5,1.7-3.4,2.5-5.8c1.4-4.3,2.2-6.6,2.2-6.7c0.8-2.4,1.7-4.2,2.5-5.6c-0.1,0-0.2,0-0.2,0.1
			c-3.2,3.3-6.2,5-8.8,5C434.3,408,433.3,407.7,432.5,407.2z"/>
		<path fill="none" d="M435.6,406.7c1.8,0,3.8-1,6-3c-2.7,0.9-5.3,1.7-7.6,2.7C434.5,406.5,435,406.7,435.6,406.7z"/>
	</g>
</g>
<g>
	<path fill="#320F47" d="M184.5,405.7h-1.8l-6.7-15.5l-6.6,15.5h-1.9L155,376.9h2.2l11.2,25.7l6.3-15.1l-4.6-10.6h2.2l11.2,25.7
		l10.8-25.7h2.2L184.5,405.7z"/>
	<path fill="#320F47" d="M208,406.2c-3.4,0-6-1-8-3c-1.9-2-2.9-4.6-2.9-7.8c0-3.3,1-6,3-8c2-1.9,4.7-2.9,8-2.9c3.3,0,6,1,8,2.9
		c2,1.9,3,4.6,3,8c0,3.3-1,5.9-3,7.9C214,405.2,211.3,406.2,208,406.2z M214.5,388.9c-1.5-1.6-3.7-2.5-6.5-2.5
		c-2.7,0-4.9,0.8-6.5,2.4c-1.6,1.6-2.4,3.8-2.4,6.5c0,2.7,0.8,4.9,2.4,6.4c1.6,1.6,3.7,2.4,6.4,2.4s4.9-0.8,6.4-2.4
		c1.6-1.6,2.4-3.7,2.4-6.4C216.9,392.7,216.1,390.5,214.5,388.9z"/>
	<path fill="#320F47" d="M250.2,405.7v-13.6c0-3.8-1.9-5.7-5.5-5.7c-2,0-3.6,0.5-4.9,1.7c-1.2,1.2-1.9,2.6-1.9,4.6v13h-2.2v-13.5
		c0-3.8-1.9-5.7-5.6-5.7c-2.2,0-3.8,0.8-5,2.3c-1.1,1.4-1.6,3.2-1.6,5.3v11.7h-2.2v-20.8h2.2v2.7c1.6-2.2,3.9-3.2,7-3.2
		c3.2,0,5.4,1.2,6.6,3.6c1.4-2.5,3.9-3.6,7.3-3.6c5.2,0,7.8,2.5,7.8,7.3v13.9L250.2,405.7L250.2,405.7z"/>
	<path fill="#320F47" d="M256.9,396.2c0.3,5.4,3.1,8,8.5,8c4.1,0,6.8-1.7,8.1-5h2.2c-0.9,2.6-2.2,4.6-4.2,5.6
		c-1.7,0.9-3.8,1.5-6.2,1.5c-3.5,0-6.2-1-8-3c-1.7-1.9-2.6-4.5-2.6-7.8c0-3.2,1-5.9,2.9-7.9c1.9-2,4.6-3,7.8-3
		c3.2,0,5.9,0.9,7.8,2.8c1.9,1.9,2.9,4.3,2.9,7.4v1.5L256.9,396.2L256.9,396.2z M265.5,386.5c-2.4,0-4.4,0.7-6,2
		c-1.5,1.4-2.5,3.2-2.7,5.6h17c-0.2-2.4-1-4.2-2.5-5.6C269.8,387.1,267.9,386.5,265.5,386.5z"/>
	<path fill="#320F47" d="M294.8,405.7v-13.6c0-1.9-0.6-3.2-1.8-4.3c-1.2-0.9-2.8-1.4-4.8-1.4c-2.4,0-4.2,0.7-5.6,2.1
		c-1.4,1.4-2.1,3.2-2.1,5.5v11.7h-2.2v-20.8h2.2v2.9c1.6-2.2,4.2-3.3,7.6-3.3c2.5,0,4.6,0.6,6.2,1.8c1.7,1.3,2.6,3.2,2.6,5.5v13.9
		h-2.2V405.7z"/>
</g>
<g>
	<g>
		<path fill="#EB5849" d="M366.5,350.7c-0.1,0.3-0.4,0.5-0.9,0.5c-4.2-0.2-8.3-0.5-12.5-0.6c-6-0.3-10.7-0.5-14.1-0.3
			c-1.9,2.2-4.8,5.9-8.7,11.4c-4.8,6.6-9,13.1-12.7,19c-7.3,12.1-12.8,22.3-16.5,30.4c-0.3,0.7-0.9,1-1.7,0.8
			c-0.9-0.2-1.2-0.7-0.8-1.5c4.1-9,9.7-19.5,16.8-31.2c3.6-6,7.7-12.1,12.2-18.3c3.7-5.1,6.4-8.7,8.1-10.4c-30.7,1-46,6.6-46,16.7
			c0,3.9,2.3,7.9,6.9,11.7c3.8,3.2,6.9,5,9.1,5.3c0.6,0.1,0.9,0.2,0.8,0.6c-0.1,0.3-0.4,0.4-0.8,0.4c-2.5-0.2-5.9-2-10-5.4
			c-5-4.1-7.5-8.3-7.5-12.7c0-7.4,6.7-12.7,20.2-15.9c6.8-1.6,16.2-2.7,28.4-3.2c1.2-0.1,2.4-0.1,3.8-0.1c4.5,0,9.7,0.3,15.5,0.9
			c5,0.5,8.2,0.9,9.4,1.2C366.5,349.9,366.7,350.3,366.5,350.7z"/>
		<path fill="#EB5849" d="M340.8,393.9c-1.6,2.4-3.9,5-7,7.8c-3.7,3.4-7.3,4.9-10.5,4.7c-2.6-0.2-4-2-4-5.4c0-2.3,0.6-4.6,1.8-7
			c1.2-2.3,2.9-4.4,5-6.2c2.2-1.8,3.9-2.6,5.5-2.6c1.2,0,1.8,0.5,1.8,1.5c0,1-0.6,2.3-1.8,3.9s-2.4,2.7-3.7,3.6
			c-1.7,1.1-3.5,1.9-5.3,2.3c-0.6,1.7-0.9,3.2-0.9,4.7c0,2.3,0.9,3.4,2.8,3.4c2.2,0,4.9-1.4,8.2-4.1c2.3-2,4.9-4.7,7.6-8.3
			L340.8,393.9z M330.7,387.3c-1.2,0-2.9,1.5-5.3,4.3c-0.8,0.9-1.4,1.9-1.9,3.1c1.6-0.5,3-1.2,4.1-2c2.5-1.8,3.8-3.3,3.8-4.7
			C331.3,387.5,331.2,387.3,330.7,387.3z"/>
		<path fill="#EB5849" d="M364.8,394.3c-1,1.4-3,3.6-6,6.6c-3.4,3.4-6.3,5.2-8.4,5.2c-1.5,0-2.2-0.9-2.2-2.8c0-0.9,0.2-1.9,0.8-3
			l0.2-0.3c-4,4.2-7.6,6.3-10.7,6.3c-2.2,0-3.2-1.2-3.2-3.7c0-3.6,2.1-7.5,6.3-11.7c1.8-1.9,3.8-3.3,6.1-4.5c2.2-1.1,4-1.7,5.6-1.7
			c2.3,0,3.5,1.2,3.5,3.6c0,1.7-0.4,2.5-1.2,2.5c-0.6,0-0.8-0.2-0.6-0.8c0.2-0.4,0.2-0.8,0.2-1.2c0-1.5-0.9-2.3-2.6-2.3
			c-2.6,0-6,1.9-9.9,5.7c-1.4,1.3-2.6,2.9-3.6,4.6c-1.1,1.9-1.7,3.5-1.7,4.8c0,1.7,0.8,2.5,2.2,2.5c1.5,0,3.6-1,6.3-3
			c2.4-1.9,4.3-3.8,5.8-5.7c0.3-0.5,0.8-1.2,1.4-2.2c0.5-0.6,1.1-0.9,1.9-0.8c0.7,0.1,0.8,0.6,0.2,1.6c-2.8,4.2-4.2,7.1-4.2,8.6
			c0,0.6,0.3,0.9,0.9,0.9c1.2,0,3.6-1.8,7.3-5.3c1.4-1.2,3.1-3.2,5.2-5.8L364.8,394.3z"/>
		<path fill="#EB5849" d="M382.3,393.9c-1.6,2.4-3.9,5-7,7.8c-3.7,3.4-7.3,4.9-10.5,4.7c-2.8-0.2-4.2-2.1-4.2-5.6
			c0-2.2,0.6-4.5,1.8-6.8c1.4-2.6,3-4.8,5-6.4c1.9-1.5,3.6-2.2,5.3-2.2c0.6,0,1.2,0.1,1.8,0.3c1.3,0.6,1.9,1.7,1.8,3.3
			c-0.2,2.2-0.7,3.8-1.6,4.8c-0.2,0.2-0.6,0.2-1.4,0c-0.7-0.2-1.1-0.4-1.1-0.6c0-0.3,0.4-1,1.2-2.2c0.8-1.2,1.2-2.2,1.2-2.9
			c0-0.9-0.5-1.3-1.3-1.3c-1.1,0-2.5,1-4.2,2.9c-1.6,1.8-2.9,3.5-3.8,5.3c-1.2,2.5-1.9,4.6-1.9,6.3c0,2.4,1,3.6,3,3.6
			c2.2,0,4.9-1.4,8.1-4.1c2.3-2,4.9-4.7,7.6-8.3L382.3,393.9z"/>
		<path fill="#EB5849" d="M402.4,393.6c-2.5,3.4-5.3,6.3-8,8.7c-2.9,2.5-5.2,3.8-6.9,3.8c-0.7,0-1.4-0.3-1.9-0.9
			c-0.5-0.6-0.8-1.2-0.8-2c0-1.5,0.9-3.6,2.7-6.4c1.2-1.8,2.3-3.5,3.5-5.3c1.2-1.8,1.7-2.9,1.7-3.6c0-0.2-0.1-0.3-0.2-0.5
			c-0.7-0.4-2.9,1.2-6.5,4.9c-1,1-2.9,3.2-5.8,6.5c-1,2-1.8,3.8-2.5,5.3c-0.7,1.5-1.5,2.2-2.3,1.9c-0.2-0.1-0.3-0.2-0.3-0.6
			c0-0.8,0.5-2.3,1.5-4.3c1.2-2.9,4.6-9.4,9.8-19.3c7-12.3,12.2-18.2,15.5-17.7c0.6,0.1,0.9,0.5,0.9,1.2c0,1.2-0.7,3.1-2.1,5.6
			c-1.2,2.2-2.7,4.3-4.3,6.3c-3,3.7-5.9,5.9-8.5,6.6c-1.5,2.6-3.3,6.2-5.5,10.6c1.9-2.4,3.5-4.2,4.8-5.4c2.7-2.5,4.9-3.7,6.6-3.7
			c1.5,0,2.2,0.6,2.2,1.8c0,1.1-0.6,2.6-1.9,4.6c-1.5,2.2-2.9,4.3-4.4,6.6c-1.3,2-1.9,3.5-1.9,4.2c0,0.7,0.3,1.1,1,1.1
			c1.2,0,3.3-1.3,6.2-4c2.5-2.3,4.8-4.8,6.7-7.4L402.4,393.6z M400.6,366.3c-1.5,0-5.4,5.2-11.5,15.6c2.3-1.4,4.5-3.2,6.4-5.7
			c3.9-4.6,5.8-7.8,5.8-9.4C401.2,366.5,401,366.3,400.6,366.3z"/>
		<path fill="#EB5849" d="M414,394.1c-1.2,1.6-3.5,4.2-6.9,7.7c-3.4,2.9-6.2,4.3-8.3,4.3c-1.8,0-2.7-0.9-2.7-2.7
			c0-1.3,0.8-3.4,2.4-6.3c3.4-6,5.7-9.7,6.9-11c0.5-0.5,1-0.6,1.6-0.4c0.5,0.2,0.6,0.5,0.4,1.1c-0.7,1-2.5,4-5.5,9
			c-2,3.6-3,5.8-3,6.6c0,0.7,0.5,1.1,1.3,1.1c1.5,0,4-1.5,7.4-4.5c0.8-0.8,2-2,3.5-3.6s2.2-2.6,2.4-2.9L414,394.1z M412.9,377.2
			c0,0.7-0.2,1.4-0.6,2.1c-0.7,1-1.5,1.5-2.4,1.5s-1.3-0.5-1.3-1.5c0-0.7,0.2-1.4,0.7-2.1c0.7-1.1,1.5-1.6,2.4-1.6
			C412.4,375.7,412.9,376.1,412.9,377.2z"/>
		<path fill="#EB5849" d="M436.2,393.6c-2.5,3.4-5.2,6.3-8,8.7c-2.9,2.5-5.3,3.8-6.9,3.8c-0.7,0-1.3-0.3-1.8-0.9
			c-0.5-0.5-0.7-1.2-0.7-1.9c0-1.5,0.9-3.7,2.8-6.6c3.9-6.1,5.8-9.3,5.5-9.5c-0.1-0.1-0.2-0.1-0.4-0.1c-1.4,0-3.9,1.9-7.6,5.6
			c-3.2,3.3-7,7.6-11.4,12.8c-0.5,0.5-1,0.7-1.6,0.5c-0.3-0.2-0.5-0.4-0.6-0.7c-0.2-0.3-0.2-0.5,0.1-0.7c0.6-0.6,2.6-3.7,6-9.3
			c3.4-5.6,5.3-8.7,5.6-9.7c0.2-0.6,0.7-0.8,1.5-0.6c0.7,0.2,0.9,0.6,0.6,1.3c-1.2,2.9-3.2,6.4-6,10.4c1.7-1.9,3.8-4,6.3-6.5
			c3.5-3.5,6.2-5.2,8-5.2c1.5,0,2.3,0.5,2.3,1.7c0,1.2-0.7,2.7-2.1,4.7c-4.2,6.2-6.4,9.8-6.4,11c0,0.8,0.3,1.1,1,1.1
			c1.2,0,3.2-1.4,6.2-4.1c2.5-2.3,4.8-4.8,6.7-7.4L436.2,393.6z"/>
	</g>
	<path fill="#EB5849" d="M461.6,398.9c0,0-0.7,0.1-1,0.1c-1.9,0.2-5.6,0.5-7.5,0.8c-0.9,0.2-1.9,0.2-2.8,0.4
		c-0.5,0.1-0.9,0.2-1.4,0.2c-0.2,0.1-0.5,0.1-0.7,0.2c-0.1,0-0.6,0.1-0.6,0.2c0.9-1.9,2-3.8,3.2-5.8c0.3-0.5,0.5-0.9,0.5-1.2
		c0-0.2-0.2-0.5-0.7-0.6c-0.6-0.2-1.1-0.1-1.2,0.4c-0.7,1.5-2.2,3.7-4.5,6.6c-0.4,0.5-0.9,1-1.2,1.5c-3.8,1-7.3,2.2-10.6,3.6
		c-0.3-0.5-0.5-1.2-0.5-2c0-2.9,1.5-6.3,4.7-10c1.5-1.9,3.3-3.4,5.2-4.6c1.9-1.2,3.5-1.8,4.7-1.8c0.5,0,0.9,0.2,1.2,0.4
		c1.1,0.6,1.6,1.4,1.6,2.5c0,0.5-0.1,1.2-0.3,1.9c-0.2,0.4,0,0.6,0.5,0.6c0.3,0,0.6-0.2,0.7-0.7c0.2-0.8,0.3-1.5,0.3-2.2
		c0-1.6-0.5-2.7-1.6-3.3c-0.8-0.5-1.8-0.7-2.9-0.7c-4.2,0-8.2,2.5-12.1,7.6c-2.6,3.6-3.9,7-3.9,10.1c0,1.2,0.2,2.2,0.7,2.9
		c-4.3,2.1-7.9,4.5-10.7,7.2c-1.2,0.9-2.2,2.2-3.2,3.8c-0.8,1.2-1.4,2.5-1.8,3.8c-0.4,1.2-0.5,2.3-0.5,3.5c0,2.5,0.8,4.3,2.2,5.6
		c0.2,0.1,0.2,0.2,0.4,0.3c1.3,0.9,2.9,1.3,4.8,1.3c2.9,0,5.9-0.9,9-2.9c3.2-1.9,5.7-4.3,7.7-7.3c1.2-1.9,2.2-4,2.9-6.4
		c1.2-3.9,1.8-6.1,1.9-6.6c0.8-2.1,1.7-4.2,2.7-6.3c0-0.1,0.3-0.1,0.4-0.1c0.2,0,0.2-0.1,0.4-0.1c0.2-0.1,0.5-0.2,0.8-0.2
		c0.5-0.2,1.1-0.2,1.6-0.3c1.9-0.4,5.4-0.9,7.3-1.2c0.9-0.2,1.9-0.3,2.9-0.4c0.5-0.1,1.1-0.1,1.5-0.2c0.2-0.1,0.5-0.2,0.5-0.5
		C462.1,398.9,461.9,399,461.6,398.9z M441.6,403.6c-2.2,2-4.2,3-6,3c-0.6,0-1.2-0.1-1.5-0.3C436.4,405.4,438.9,404.4,441.6,403.6z
		 M441.7,408.4c-0.1,0.2-0.8,2.4-2.2,6.7c-0.8,2.4-1.6,4.3-2.5,5.8c-1.7,2.8-3.9,5-6.6,6.8c-2.7,1.7-5.3,2.6-7.7,2.6
		c-1.7,0-3.2-0.5-4.2-1.3c-1.4-1.2-2.1-2.8-2.1-4.9c0-0.5,0-1,0.1-1.5c0.7-3.5,2.9-6.7,6.3-9.7c0.2-0.2,0.5-0.4,0.8-0.6
		c2.4-1.9,5.3-3.7,8.7-5.3c0.1,0.1,0.2,0.1,0.2,0.2c0.9,0.5,1.7,0.8,2.7,0.8c2.6,0,5.6-1.7,8.8-5c0.1,0,0.2,0,0.2-0.1
		C443.4,404.2,442.5,406,441.7,408.4z"/>
</g>
<g>
	<g>
		<path fill="#EB5849" d="M111.4,391.1c-0.1,0.3-0.3,0.5-0.7,0.5c-0.5,0-0.7-0.2-0.7-0.6c0-0.1,0-0.2,0.1-0.2l1.2-3.7
			c0.1-0.3,0.3-0.5,0.7-0.5c0.5,0,0.8,0.2,0.8,0.6c0,0.1,0,0.2-0.1,0.2L111.4,391.1z"/>
		<path fill="#EB5849" d="M118.6,405.5v-16l-3.7,2.9h-2.2l6.2-4.9h1.2v18H118.6L118.6,405.5z"/>
		<path fill="#EB5849" d="M130.4,405.8c-2.2,0-3.9-0.5-5.2-1.5c-1.4-1.1-2.2-2.8-2.2-5.2h1.4c0,1.9,0.5,3.2,1.7,4.1
			c1,0.8,2.5,1.2,4.2,1.2c1.8,0,3.2-0.5,4.2-1.3c1.1-0.9,1.6-2.1,1.6-3.8c0-1.6-0.6-2.9-1.8-3.8c-1.1-0.9-2.6-1.3-4.2-1.3
			c-2.3,0-4,0.9-5.2,2.6h-1.4l0.5-9.5h12.8v1.3h-11.4l-0.2,6c1.2-1.2,2.9-1.8,5.1-1.8c2.1,0,3.9,0.5,5.2,1.6
			c1.5,1.2,2.2,2.7,2.2,4.7c0,2.1-0.7,3.6-2.2,4.8C134.3,405.3,132.5,405.8,130.4,405.8z"/>
	</g>
	<g>
		<path fill="#EB5849" d="M40.7,396.4c2,0.8,2.9,2.2,2.9,4.5v4.9h-1.5v-4.8c0-2.5-1.8-3.8-5.3-3.8h-7.6v8.6h-1.5v-19.2h9.3
			c4.5,0,6.7,1.7,6.7,5C44,393.9,42.9,395.5,40.7,396.4z M37.2,387.9h-7.8v7.9h7.4c1.6,0,2.9-0.3,3.9-0.9c1.2-0.7,1.8-1.8,1.8-3.2
			C42.5,389.1,40.7,387.9,37.2,387.9z"/>
		<path fill="#EB5849" d="M46.7,399.3c0.2,3.6,2.1,5.3,5.6,5.3c2.7,0,4.6-1.2,5.4-3.4h1.5c-0.5,1.8-1.5,3-2.8,3.7
			c-1.2,0.6-2.6,0.9-4.1,0.9c-2.3,0-4.1-0.7-5.3-2c-1.2-1.2-1.7-2.9-1.7-5.2c0-2.2,0.6-3.9,1.9-5.3c1.3-1.3,3-2,5.2-2
			s3.9,0.6,5.2,1.9c1.3,1.2,1.9,2.9,1.9,4.9v1L46.7,399.3L46.7,399.3z M52.4,392.9c-1.6,0-2.9,0.5-3.9,1.4c-1,0.9-1.6,2.2-1.8,3.7
			H58c-0.1-1.5-0.6-2.9-1.6-3.7C55.3,393.4,54,392.9,52.4,392.9z"/>
		<path fill="#EB5849" d="M67.3,405.7H66L59.3,392H61l5.6,11.9l5.3-11.9h1.5L67.3,405.7z"/>
		<path fill="#EB5849" d="M75,389.4c-0.3,0-0.5-0.2-0.7-0.5v-2c0.2-0.4,0.4-0.5,0.7-0.5c0.2,0,0.5,0.2,0.8,0.5v2.1
			C75.5,389.3,75.2,389.4,75,389.4z M74.3,405.7v-14h1.5v14H74.3z"/>
		<path fill="#EB5849" d="M84.5,405.7h-1.3l-6.6-13.8h1.7l5.6,11.9l5.3-11.9h1.5L84.5,405.7z"/>
		<path fill="#EB5849" d="M92,399.3c0.2,3.6,2.1,5.3,5.6,5.3c2.7,0,4.6-1.2,5.4-3.4h1.5c-0.5,1.8-1.5,3-2.8,3.7
			c-1.2,0.6-2.6,0.9-4.1,0.9c-2.3,0-4.1-0.7-5.3-2c-1.2-1.2-1.7-2.9-1.7-5.2c0-2.2,0.6-3.9,1.9-5.3c1.3-1.3,3-2,5.2-2
			s3.9,0.6,5.2,1.9c1.3,1.2,1.9,2.9,1.9,4.9v1L92,399.3L92,399.3z M97.8,392.9c-1.6,0-2.9,0.5-3.9,1.4c-1,0.9-1.6,2.2-1.8,3.7h11.3
			c-0.1-1.5-0.6-2.9-1.6-3.7C100.6,393.4,99.3,392.9,97.8,392.9z"/>
		<path fill="#EB5849" d="M141.9,395.7c-0.5,0-0.8-0.2-0.8-0.7v-1.7c0-0.5,0.2-0.7,0.8-0.7c0.5,0,0.7,0.2,0.7,0.7v1.8
			C142.6,395.5,142.3,395.7,141.9,395.7z M141.9,405.8c-0.5,0-0.8-0.2-0.8-0.7v-1.7c0-0.5,0.2-0.7,0.8-0.7c0.5,0,0.7,0.2,0.7,0.7
			v1.7C142.6,405.5,142.3,405.8,141.9,405.8z"/>
	</g>
</g>
</svg>
